<svg xmlns="http://www.w3.org/2000/svg" viewBox="0 0 512 512" id="menu-button">
    <path d="M267 457c-8.43 0-15.9-3.46-21.5-10.1-31.7-38.1-32.7-61.7-34.1-94.3v-2.41c-.753-14.9-10.2-23-23.3-34.3-11.9-10.2-25.3-21.8-34.7-41.3-20.6-42.8 30.7-126 32.9-129 .452-.678 .979-1.36 1.66-1.88 34-27.6 60.1-5.42 87.8 18.1l6.7 5.65c14.5 12.1 29.9 10.2 46.2 8.13 22.7-2.79 48.3-6.02 59.3 38.1 6.1 24.2-6.55 38.2-20 52.9-15.6 17.2-33.3 36.7-30.7 80.6 2.94 49.5-26.8 95.4-56.4 107-4.82 1.88-9.56 2.86-14 2.86zM198 155c-14.1 22.8-45.3 84.6-31.4 113 7.98 16.6 19.7 26.7 30.9 36.4 14.2 12.2 27.6 23.7 28.5 45.3v2.41c1.51 31.8 2.26 51 30.6 85.2 4.14 4.97 10.2 5.87 18.1 2.79 20.9-8.21 49.5-45.8 46.8-92-3.01-50.4 18.7-74.3 34.6-91.8 13.5-14.8 20.3-23.3 16.4-38.9-7.83-30.9-20.2-29.4-42.7-26.7-17.1 2.11-38.3 4.74-57.8-11.6l-6.78-5.72c-29.4-24.9-44.7-36.3-67.2-18.6zM461 104c-.452-1.05-1.05-2.03-2.03-2.79 0 0-.075 0-.151 0-21.6-28.2-48.9-52-80.3-69.3-.301-.151-.527-.376-.828-.527C342 11.3 300 0 256 0c-29.7 0-58.2 5.12-84.7 14.5-.376 .075-.678 .151-.979 .376C71.1 50.1 0 145 0 256c0 85.2 41.9 161 106 207 .527 .527 1.13 .904 1.81 1.28 41.8 29.7 92.8 47.4 148 47.4 141 0 256-115 256-256 0-56.9-18.8-110-50.4-152zM178 28.3c24.5-8.43 50.7-13 78-13 40.1 0 77.8 9.86 111 27.3-.753 2.56-2.11 3.99-3.31 4.74-9.19 6.32-32.8 1.2-45.9-3.69-8.28-2.56-50.4-14.5-68.1-2.03-5.12 3.61-7.91 8.88-8.13 15.3-.075 2.71-1.51 5.2-3.69 6.78-22 15.3-55.2 6.93-65.7 3.76-2.26-7.23-6.17-25.4 5.65-39zM21.8 311c8.21-1.81 22.7-3.54 35.4 2.56 9.86 4.82 17 13.9 21.2 27 1.13 3.39 1.51 7.15 1.2 11.2-1.51 19.9 10.8 43.1 26.3 49.7 7.98 3.39 12.1 12.1 9.71 20.3-2.56 8.66-5.12 16.4-7.6 23.3-42.4-33.1-73.4-80.1-86.2-134zm234 185c-50 0-96.5-15.4-135-41.6 3.09-8.13 6.25-17.6 9.41-28.3 4.67-15.7-3.16-32.3-18.3-38.8-8.51-3.61-18.1-20.3-17-34.5 .452-6.02-.226-11.7-1.96-17.1-5.57-17.2-15.4-29.3-29.2-36-16.6-8.06-34.6-6.02-45-3.76-2.26-13.2-3.46-26.7-3.46-40.4 0-97.1 57.9-181 141-219-5.27 19.6 2.48 38.4 2.94 39.5 .828 1.88 2.41 3.39 4.37 4.14 1.2 .452 19.6 7.15 41.2 7.15 13.8 0 28.9-2.79 41.8-11.7 6.17-4.29 10-11.2 10.2-18.7 0-1.88 .753-2.64 1.73-3.39 8.43-6.02 37.1-1.2 54.3 4.07 4.14 1.51 40.8 14.7 59.4 1.81 2.86-1.96 6.02-5.04 8.13-9.79 24.6 15 46.3 34.3 64.2 56.8-10.4 14-36.5 54.1-18.5 83.1 10.2 16.5 3.54 27.9-4.29 41.2-4.29 7.38-8.81 15-9.94 23.5-1.51 10.5 2.33 21.7 10.7 31.3 8.21 9.41 27.5 24.8 66.9 27.1-25.8 105-121 183-234 183zm178-220c-5.35-6.17-7.98-13.2-7.08-19.2 .753-5.5 4.29-11.5 7.98-17.8 8.51-14.5 19.1-32.6 4.07-57-11-17.7 3.84-46.1 15.1-62.3 26.7 38.7 42.3 85.5 42.3 136 0 14.4-1.36 28.5-3.76 42.2-26.2-1.2-47.4-8.96-58.6-21.9z"/>
</svg>
