<svg xmlns="http://www.w3.org/2000/svg" viewBox="0 0 96 65.1">
    <path d="M96 22.3a3.4 3.4 0 0 0-1.4-2l-.3-2a1 1 0 0 0-1.8-.2l-.2.3-.4-.5a1 1 0 0 0-.4-.2 4.4 4.4 0 0 1-1.8-1.4 6.6 6.6 0 0 1-1.2-2.9 3.9 3.9 0 0 1 0-1.8 9.3 9.3 0 0 1 .7-2l1.8-.4a1 1 0 0 0 .4-.2l2.2-2a2.5 2.5 0 0 0 .9-1.1 3 3 0 0 0-.2-2.3 5.6 5.6 0 0 0-1.5-2A7.2 7.2 0 0 0 89 0a1 1 0 0 0-.1 0h-5.4a1 1 0 0 0-.9.6l-3.9 6.8c-2.3 0-3.3 0-4 .6a4.1 4.1 0 0 0-1.2 2l-.8 2.2c-.6-.3-1.1-.6-1.6-.7-1-.4-1.9-.4-2.2.5a4.5 4.5 0 0 0 0 2.1l-6.2 2.5-1.9.2c-6.7.7-11.9-.6-17-1.9A56.9 56.9 0 0 0 31 12.7a56.3 56.3 0 0 0-13.2 1A21.3 21.3 0 0 0 11 16a24.2 24.2 0 0 0-9.5 9 13.2 13.2 0 0 0-.8 11 1 1 0 1 0 1.9-.6 11.2 11.2 0 0 1 0-7.6 9.6 9.6 0 0 0-.3 2.2 8.8 8.8 0 0 0 .7 3.2A12.2 12.2 0 0 0 4.6 36L7 44.4c-2.4 6.7-1.7 9-.3 14L8 63.2a1 1 0 0 0 1 .7l10.3.1a1 1 0 0 0 .6-1.7s-4.3-3.3-4-4.1a7.3 7.3 0 0 0 0-1.9 18.6 18.6 0 0 1 0-4 20 20 0 0 1 1.8-5A35 35 0 0 0 34 51.7a91.7 91.7 0 0 0 17.3-1.3l-.7 5.5a1 1 0 0 0 0 .4c.7 2.4.5 2.8.4 3.4a7 7 0 0 0-.3 3.2 1 1 0 0 0 .9.9l2.2.2a14.5 14.5 0 0 0 3.7-.3 5.2 5.2 0 0 0 .6-.2c.3.6.5 1 .8 1a20.2 20.2 0 0 0 7 .4 5.7 5.7 0 0 0 1.3-.2c.7-.3 1-.8.9-1.5a1.3 1.3 0 0 0-.7-.8 6.5 6.5 0 0 1-.6-.4 4 4 0 0 1-.6-.5 9 9 0 0 1-1.4-2.6 7.5 7.5 0 0 0-.6-1.4 20.5 20.5 0 0 1 .7-4.2 63 63 0 0 1 2.3-8.2 97 97 0 0 1 10.2-10.6l9.6-8a11.4 11.4 0 0 0 4-.2 9.6 9.6 0 0 0 4.6-3 1 1 0 0 0 .2-1Zm-5.4 2.1a10.2 10.2 0 0 1-3.7.2 1 1 0 0 0-.7.2l-10 8.2s-9.5 8.8-10.6 11.4a65 65 0 0 0-2.5 8.5c-.6 2.7-.9 5-.4 5.7a7.2 7.2 0 0 1 .4 1 10.3 10.3 0 0 0 1.7 3.2c.2 0 .3.2.4.3a17.4 17.4 0 0 1-5.6-.4.2.2 0 0 1-.1 0 1.3 1.3 0 0 0 .2-.7 1 1 0 0 0-.4-.8A12.1 12.1 0 0 0 59 59l-.1-.4a9 9 0 0 0-.5-1.3 7.1 7.1 0 0 1-.5-1.5 29.3 29.3 0 0 1-.1-4 17.1 17.1 0 0 0-.2-3.4 1 1 0 1 0-1.8.6 21.6 21.6 0 0 1 0 2.9 30 30 0 0 0 .2 4.2 8.6 8.6 0 0 0 .6 2 7.6 7.6 0 0 1 .4 1l.1.3.6 2.3a1 1 0 0 0-.5 0 12.6 12.6 0 0 1-3.2.2h-1.3a4.4 4.4 0 0 1 .2-1.7c.3-.9.5-1.5-.3-4.3l.8-5.9a1 1 0 0 0-.5-1l-.8-.5a1 1 0 0 0-.7-.1 91.3 91.3 0 0 1-17.3 1.2 32.6 32.6 0 0 1-16-4.5H18a1 1 0 0 0-1.3.3 21.8 21.8 0 0 0-2.5 6.5 19.6 19.6 0 0 0-.1 4.4v1.2c-.3 1.2 1.3 3 2.7 4.5l-7-.1-1.1-4.2a16 16 0 0 1 .3-13 1 1 0 0 0 0-.7l-2.7-8.9a1 1 0 0 0-.1-.3 10.5 10.5 0 0 1-1.4-2.4 6.9 6.9 0 0 1-.5-2.6 9.6 9.6 0 0 1 1.2-4.4 28.5 28.5 0 0 1 4.2-5.7c1.9-2.2 4.9-3.5 8.5-4.3a54.4 54.4 0 0 1 12.8-.8 55.5 55.5 0 0 1 12.3 2 47 47 0 0 0 17.7 2l2-.2a1 1 0 0 0 .3 0l6.3-2.6a2.4 2.4 0 0 0 .4.3 5.3 5.3 0 0 0 2 1 1 1 0 1 0 .3-1.9 3.2 3.2 0 0 1-1.2-.6 1.4 1.4 0 0 1-.4-.8 3.4 3.4 0 0 1 0-.5l1.1.5c1 .5 1.8 1 2.4.6a1 1 0 0 0 .4-1.3 1 1 0 0 0-.2-.2l1-2.3a3.7 3.7 0 0 1 .5-1.2c.2-.2 1-.2 2.8-.2h.5a1 1 0 0 0 1-.4l3.9-7h4.7A5.3 5.3 0 0 1 91.6 3a3.7 3.7 0 0 1 1 1.3 1.2 1.2 0 0 1 0 .8.6.6 0 0 1-.2.3l-2.1 2-2 .4a1 1 0 0 0-.6.5 12 12 0 0 0-1 2.8 5.7 5.7 0 0 0 0 2.6 8.4 8.4 0 0 0 1.5 3.7 6.3 6.3 0 0 0 2.4 1.9l1.3 1.4a1 1 0 0 0 .4.2l.8.5.1.1a2.3 2.3 0 0 1 .7.8 7.4 7.4 0 0 1-3.3 2Z" />
    <path d="M89.4 19.3a3.1 3.1 0 0 1-1.6-.6 5.9 5.9 0 0 1-1.3-1.4A17 17 0 0 1 85 15a3.6 3.6 0 0 1-.3-2.5 6 6 0 0 0 0-2c-.1-1 1-1.7 1-1.7a1 1 0 1 0-1-1.6s-2.2 1.3-1.9 3.6a4.4 4.4 0 0 1 0 1.4 5.2 5.2 0 0 0 .5 3.6 18.7 18.7 0 0 0 1.6 2.7 7.7 7.7 0 0 0 1.7 1.8 5.2 5.2 0 0 0 2.8 1 1 1 0 1 0 0-2Z" />
</svg>
