<?xml version="1.0" encoding="UTF-8"?>
<svg id="a" xmlns="http://www.w3.org/2000/svg" viewBox="0 0 655.77270056 322.2561">
    <path d="m535.01957657,73.10306116c-43.11556011-1.33404439-81.8570602,19.51761646-105.25479753,52.21298672,3.21588354,2.07662478,6.11086453,4.43592769,8.67039061,7.07602435,21.25696181-30.10711651,56.72597488-49.35819697,96.23929874-48.13569973,62.52366329,1.9346078,111.81903215,54.37600621,109.88444838,116.90150039-1.93458377,62.52549419-54.37771664,111.81893252-116.90137994,109.88432472-52.03608247-1.60993911-94.87868209-38.21535642-106.68245143-86.4908464-3.278297,1.52997189-6.78468752,2.84245968-10.51791512,3.92157639,13.40309029,52.39144954,60.16002429,91.96845451,116.85525997,93.72270342,68.67390415,2.12490422,126.27491768-52.01691489,128.39979786-120.69264994,2.12500064-68.67585871-52.01862693-126.27513937-120.69265154-128.39991992Z"
          stroke-width="0"/>
    <path d="m549.36190638,318.72055303c-.76022914,0-1.51855771-.29458879-2.09063013-.8818658-6.00200906-6.15595546-9.1417554-14.60685263-8.61339615-23.18603846.50175123-8.13635236,4.14134824-15.59039908,10.2478888-20.98897625s13.93500012-8.10404263,22.09035822-7.59373882c15.88118672.97784473,28.4610784,14.19632889,28.63783168,30.09176991.01710516,1.61168578-1.27528438,2.93353419-2.88697016,2.95158963h-.03230974c-1.59838177,0-2.90217474-1.28573753-2.9192799-2.88697016-.14254296-12.85072331-10.31630942-23.53764444-23.15848016-24.32923303-6.58358435-.39246829-12.92389537,1.77608533-17.8634842,6.14170116-4.93958883,4.36561583-7.88357618,10.39328262-8.28839819,16.97306582-.42572832,6.9370909,2.11343701,13.77250115,6.96750006,18.75200201,1.12513913,1.15364772,1.10233225,3.00195481-.05321604,4.12804423-.56637071.5530667-1.3018924.82864976-2.03741409.82864976Z"
          stroke-width="0"/>
    <path d="m467.27806563,120.12874581c-.55116613,0-1.10423282-.01710516-1.6592001-.05131547-6.37452133-.39246829-12.38603325-3.07892801-16.92460121-7.56523022-1.14604543-1.1336917-1.15744886-2.9819988-.02280687-4.12899451,1.13274142-1.14509514,2.98009823-1.15744886,4.12804423-.02375716,3.53316493,3.4932529,8.21237528,5.58483332,13.17667156,5.89082554,5.51356183.33545111,10.76674519-1.48054625,14.87958483-5.11539182,4.11474022-3.63674615,6.56457862-8.65710932,6.90288059-14.13741113.14824468-2.40517494-.11783552-4.78374186-.7906383-7.06918071-.45613748-1.54611601.42762889-3.16920522,1.97469519-3.62534271,1.53946401-.45233634,3.16825494.42762889,3.62439242,1.97564548.86666122,2.93923591,1.20876433,5.99345648,1.01870705,9.07808621-.43333061,7.03687097-3.58067925,13.48361407-8.86427176,18.15237128-4.86546649,4.30099636-11.00621737,6.61969523-17.4434576,6.61969523Z"
          stroke-width="0"/>
    <path d="m461.49272188,266.17161434c-.33830197,0-.67850451-.01045315-1.02060762-.03135945-4.36751641-.26893106-8.37012282-2.22367023-11.27039699-5.50405897-2.89837359-3.27943845-4.3466101-7.49205817-4.07672876-11.86147515.26798077-4.36846669,2.22176966-8.3720234,5.5021584-11.27134728,3.28038874-2.89932388,7.49966046-4.34756039,11.86147515-4.07862933,9.02201931.55591756,15.90779474,8.34731595,15.3509269,17.3664844-.53596154,8.67801563-7.76764123,15.38038578-16.34682707,15.38038578Zm-.02470745-26.93966984c-2.57337564,0-5.02701518.92652926-6.97320178,2.6455974-2.11153643,1.86731282-3.36971566,4.44353932-3.54266779,7.25543685-.17295213,2.8137981.75832857,5.52591556,2.6246911,7.63745199,1.86636254,2.11153643,4.44353932,3.36971566,7.25448656,3.54266779h.00190057c5.80054833.35255626,10.8218618-4.07577847,11.17916949-9.88107824.3573077-5.80625005-4.07482819-10.8218618-9.88297881-11.18011978-.22046645-.01330401-.4409329-.01995601-.66139935-.01995601Z"
          stroke-width="0"/>
    <path d="m512.54781031,216.44502634c-.78683716,0-1.5679726-.02470745-2.34150575-.07222177-21.49167777-1.32469928-37.8974226-19.886644-36.57272332-41.37737148.64239362-10.41133806,5.2987971-19.9493629,13.11395265-26.85699492,7.81705613-6.90763202,17.86158363-10.35051973,28.26341883-9.71667869,21.4897772,1.32374899,37.8974226,19.88569371,36.57462389,41.37737148-.08362521,1.32374899-.23186989,2.6531997-.44473405,3.95699267-.21096359,1.29143925-1.25437808,2.28543885-2.55627048,2.43178296-14.69712984,1.64969723-26.63272732,12.98946513-29.02364797,27.57731203-.21286416,1.29143925-1.25627865,2.28353828-2.55627048,2.4289321-1.49194969.16725041-2.98389937.25087562-4.45684333.25087562Zm.01520458-72.26072998c-8.10214205,0-15.82607011,2.91737932-21.94971583,8.32926051-6.64630325,5.87467067-10.60709707,13.98631559-11.15256147,22.84108449-1.1270397,18.27780908,12.82696615,34.06396716,31.10667581,35.19100686,1.20116204.07412234,2.43273325.07982406,3.67000617.01805544,3.45714201-15.31481601,15.94010448-27.17819173,31.41646918-29.85324802.04371318-.42477803.07792349-.84955606.10453151-1.27338381,1.12513913-18.27590851-12.8307673-34.06206659-31.10667581-35.188156-.69941081-.04276289-1.39692104-.06461948-2.08872956-.06461948Zm35.69655924,39.10238578h.01900573-.01900573Z"
          stroke-width="0"/>
    <path d="m593.18911627,223.0552187c-.42192717,0-.84385434-.01235372-1.26958266-.03896174h0c-11.24568954-.6927588-19.8305771-10.40468606-19.13686801-21.6503756s10.42464207-19.83152739,21.64942532-19.13686801c11.24568954.6927588,19.8305771,10.40563634,19.13686801,21.6503756-.66710107,10.81901094-9.68341866,19.17582975-20.37984265,19.17582975Zm-.91227497-5.8661181c8.05082659.48559636,14.96891175-5.63804935,15.46496127-13.66891993.49414894-8.03182086-5.63709907-14.96891175-13.66701935-15.46401098-8.06983231-.51030381-14.96891175,5.63709907-15.46496127,13.66891993-.49414894,8.03182086,5.63709907,14.96891175,13.66701935,15.46401098h0Z"
          stroke-width="0"/>
    <path d="m605.71199077,139.68944157c-1.17075287,0-2.35290919-.06461948-3.54456836-.19385843-8.56208068-.93318127-16.55208894-5.15055242-22.49708081-11.87477916-10.25168994-11.60014638-11.97360894-28.0553061-4.18316084-40.01561104.87806466-1.35225758,2.68931058-1.73237215,4.0387173-.85335721,1.3513073.87996523,1.73332244,2.68836029.85335721,4.0387173-6.36121732,9.76894444-4.85406305,23.32383,3.66620502,32.96353548,4.97950086,5.63234764,11.63910812,9.16171142,18.75485287,9.93714514,7.01121324.76688114,13.62710732-1.24962665,18.62751449-5.67035909,1.20686376-1.06622137,3.05231999-.95123671,4.12044194.25372648,1.06812194,1.20781405.95408757,3.05327028-.25467676,4.12139222-5.38812403,4.76283556-12.23778857,7.29344831-19.58160206,7.29344831Z"
          stroke-width="0"/>
    <path d="m102.22178423,123.46301169c0-1.82230504,1.13745184-2.95975688,2.95975688-2.95975688h38.24855498c1.82230504,0,2.95777179,1.13745184,2.95777179,2.95975688l-1.81833487,76.26684047,1.81833487,77.17799299c0,1.82230504-1.13546676,2.95975688-2.95777179,2.95975688h-38.24855498c-1.82230504,0-2.95975688-1.13745184-2.95975688-2.95975688l1.36573624-66.70470173h-60.78717306l1.36573624,66.70470173c0,1.82230504-1.13745184,2.95975688-2.95975688,2.95975688H2.95975688c-1.82230504,0-2.95975688-1.13745184-2.95975688-2.95975688l1.82031996-77.17799299L0,123.46301169c0-1.82230504,1.13745184-2.95975688,2.95975688-2.95975688h38.2465699c1.82230504,0,2.95975688,1.13745184,2.95975688,2.95975688l-1.13745184,56.23339555h60.33060426l-1.13745184-56.23339555Z"
          stroke-width="0"/>
    <path d="m199.61487586,276.90784515c0,1.82230504-1.13546676,2.95975688-2.95777179,2.95975688h-37.56568686c-1.82230504,0-2.95777179-1.13745184-2.95777179-2.95975688l1.81833487-76.04054115-1.81833487-77.40429231c0-1.82230504,1.13546676-2.95975688,2.95777179-2.95975688h37.56568686c1.82230504,0,2.95777179,1.13745184,2.95777179,2.95975688l-1.81833487,77.40429231,1.81833487,76.04054115Z"
          stroke-width="0"/>
    <path d="m385.03420356,120.50325481h-63.51864553c-1.82230504,0-2.96174196,1.13745184-2.96174196,2.95975688l.05359721,2.28334027c15.12905235,9.72590799,23.13463887,25.57703382,23.13463887,46.89383409,0,20.3637129-7.7559625,36.22674922-21.80016767,46.5218794l-1.38806841,57.7457797c0,1.82230504,1.13943692,2.95975688,2.96174196,2.95975688h38.0182855c1.82230504,0,2.96174196-1.13745184,2.96174196-2.95975688l-1.13943692-49.40272928h23.2214862c40.75372813,0,63.97521433-20.71829813,63.97521433-54.41109051,0-34.83421438-22.53861808-52.59077055-63.51864553-52.59077055Zm-.9131376,76.94970859h-23.2214862l.9131376-47.12584052h21.39918116c15.47966741,0,24.36092312,7.51353439,24.36092312,23.67606992,0,16.84738873-10.01672246,23.4497706-23.45175568,23.4497706Z"
          stroke-width="0"/>
    <path d="m210.08893494,120.50325481h63.51864553c40.98002745,0,63.51864553,17.75655617,63.51864553,52.59077055,0,33.69279238-23.2214862,54.41109051-63.97521433,54.41109051h-23.2214862l1.13943692,49.40272928c0,1.82230504-1.13943692,2.95975688-2.96174196,2.95975688h-38.0182855c-1.82230504,0-2.96174196-1.13745184-2.96174196-2.95975688l1.82230504-75.81225675-1.82230504-77.63257671c0-1.82230504,1.13943692-2.95975688,2.96174196-2.95975688Zm39.38402173,76.94970859h23.2214862c13.43503322,0,23.45175568-6.60238187,23.45175568-23.4497706,0-16.16253553-8.88125571-23.67606992-24.36092312-23.67606992h-21.39918116l-.9131376,47.12584052Z"
          stroke-width="0"/>
    <path d="m44.0181322,102.37195494C16.04888772,102.37195494,1.41396668,89.30627951.11336909,67.72488809c0-.70786623.81234046-1.41999671,1.62681305-1.41999671h5.69064747c.81234046,0,1.62681305.57141009,1.78885471,1.41999671,1.46263925,17.60710634,11.05721161,28.11422914,35.28457288,28.11422914,18.37467213,0,32.8475515-6.53283771,32.8475515-22.5749627C77.35180871,41.74278614,2.39048093,63.75060301,2.39048093,27.40209866,2.39048093,9.51355153,18.97629835.14072039,41.25276324.14072039c25.69213265,0,40.65326915,10.08069736,42.27795007,29.67494624.16204167.71213048-.65029879,1.41999671-1.46263925,1.41999671h-5.85482127c-.81234046,0-1.62468092-.56714583-1.62468092-1.41999671-1.30272971-15.6199638-11.8716842-23.14210853-33.17376696-23.14210853-17.886415,0-30.57043966,6.38785306-30.57043966,20.16139472,0,28.96281576,74.9634599,7.24070394,74.9634599,45.86205587,0,19.87568967-18.5367138,29.67494624-41.78969294,29.67494624Z"
          stroke-width="0"/>
    <path d="m135.73371544,60.34346375h-26.6686469l.32621546,39.18849777c0,.70786623-.81447259,1.41999671-1.62681305,1.41999671h-5.85268914c-.81447259,0-1.62681305-.71213048-1.62681305-1.41999671l.48825713-50.40775105-.48825713-46.14349666c0-.71213048.81234046-1.41999671,1.62681305-1.41999671h33.17163483c23.41502081,0,38.70024064,9.79499231,38.70024064,28.96708001,0,20.58782015-15.77347696,29.81566664-38.04994185,29.81566664Zm-26.83068857-10.93354823v4.54143092h26.99273024c18.0505888,0,29.10780041-6.24713267,29.10780041-23.28282892,0-15.47924341-10.89516995-22.71994735-29.7580992-22.71994735h-25.85417432l-.48825713,41.46134535Z"
          stroke-width="0"/>
    <path d="m250.04984691,100.95195823c-.97651425,0-1.78885471-.56714583-2.11507017-1.27927631l-12.84606632-31.66208878h-49.26919513l-12.84606632,31.66208878c-.32621546.71213048-1.13855592,1.27927631-2.11507017,1.27927631h-5.69064747c-.81234046,0-1.30059759-.71213048-1.13855592-1.27927631L204.68031241,2.83999342c.32621546-.71213048,1.13855592-1.27927631,2.11507017-1.27927631h7.80571765c.97438213,0,1.78885471.56714583,2.11293805,1.27927631l40.65326915,96.8326885c.16204167.56714583-.32621546,1.27927631-1.13855592,1.27927631h-6.1789046Zm-17.72437334-39.61492321l-21.79033989-53.8148903-21.95238156,53.8148903h43.74272145Z"
          stroke-width="0"/>
    <path d="m309.57030956,102.51267533c-32.35716225,0-50.89600817-18.31497257-50.89600817-51.68276311,0-31.23566335,19.18914472-50.82991223,50.89600817-50.82991223,21.62829822,0,40.48909535,9.08712609,45.2053607,34.07565676.16204167.70786623-.48825713,1.41999671-1.30059759,1.41999671h-5.69064747c-.97651425,0-1.78885471-.56714583-1.95089638-1.41999671-3.74188322-19.73496928-18.53884592-27.54708331-36.42526093-27.54708331-26.34243144,0-41.46560961,17.46638595-41.46560961,44.30133877,0,30.52779712,15.77347696,45.14992539,41.46560961,45.14992539,20.65178397,0,35.44874667-10.22141775,37.23760139-29.67494624.16204167-.84858662.97651425-1.41999671,1.78885471-1.41999671h5.85268914c.81447259,0,1.62681305.71213048,1.46477138,1.41999671-2.92741063,23.71351862-20.81382564,36.20778395-46.18187495,36.20778395Z"
          stroke-width="0"/>
    <path d="m371.2058424,100.95195823c-.81447259,0-1.62681305-.71213048-1.62681305-1.41999671l.48825713-51.11561727-.48825713-45.43563044c0-.71213048.81234046-1.41999671,1.62681305-1.41999671h63.0917757c.81234046,0,1.62468092.70786623,1.62468092,1.41999671v3.54785965c0,.71213048-.81234046,1.41999671-1.62468092,1.41999671h-55.61227352l-.48825713,36.34850435h52.84690455c.81447259,0,1.62681305.71213048,1.62681305,1.41999671v3.5521239c0,.70786623-.81234046,1.41999671-1.62681305,1.41999671h-52.84690455l.48825713,43.87064908h56.9128711c.81234046,0,1.62468092.71213048,1.62468092,1.41999671v3.5521239c0,.70786623-.81234046,1.41999671-1.62468092,1.41999671h-64.39237329Z"
          stroke-width="0"/>
</svg>
