<?xml version="1.0" encoding="utf-8"?>
<svg version="1.1" id="Layer_1" xmlns="http://www.w3.org/2000/svg" xmlns:xlink="http://www.w3.org/1999/xlink" x="0px" y="0px"
	 viewBox="0 0 590.7 758.2" style="enable-background:new 0 0 590.7 758.2;" xml:space="preserve">
<style type="text/css">
	.st0{fill:#939DAD;stroke:#000000;stroke-width:8.2045;stroke-linecap:round;stroke-linejoin:round;}
	.st1{fill:#939DAD;stroke:#232020;stroke-width:4.1022;stroke-linecap:round;stroke-linejoin:round;}
	.st2{fill:#D22028;stroke:#232020;stroke-width:5;stroke-linecap:round;stroke-linejoin:round;}
	.st3{fill:#030303;fill-opacity:0.3137;stroke:#232020;stroke-width:5;stroke-miterlimit:10;}
	.st4{fill:#FFFFFF;fill-opacity:0.3137;}
	.st5{fill:none;stroke:#000000;stroke-width:12.3067;stroke-linejoin:round;stroke-miterlimit:10;}
	.st6{fill:#939DAD;stroke:#030303;stroke-width:8.2045;stroke-linecap:round;stroke-linejoin:round;}
	.st7{fill:#030303;fill-opacity:0.3137;}
	.st8{fill:#FFFFFF;stroke:#030303;stroke-width:8.2045;stroke-linecap:round;stroke-linejoin:round;}
	.st9{fill:#F6A7AD;}
	.st10{fill:#030303;fill-opacity:0.3137;stroke:#232020;stroke-width:4.1022;stroke-miterlimit:10;}
	.st11{fill:#030303;fill-opacity:0.3137;stroke:#030303;stroke-width:4.1022;stroke-miterlimit:10;}
	.st12{fill:#939DAD;stroke:#030303;stroke-width:4.1022;stroke-linecap:round;stroke-linejoin:round;}
	.st13{fill:#232020;}
	.st14{fill:#FFFFFF;stroke:#000000;stroke-width:7.2836;stroke-miterlimit:10;}
	.st15{fill:#FFFFFF;stroke:#000000;stroke-width:7.2834;stroke-miterlimit:10;}
	.st16{fill:none;stroke:#000000;stroke-width:6.1534;stroke-linecap:round;stroke-linejoin:round;}
	.st17{stroke:#030303;stroke-width:6.2186;stroke-linecap:round;stroke-linejoin:round;}
	.st18{opacity:0.2;fill:#5AC9E8;}
	.st19{fill:#939DAD;stroke:#030303;stroke-width:6.1534;stroke-linecap:round;stroke-linejoin:round;}
	.st20{fill:none;stroke:#030303;stroke-width:6.1534;stroke-miterlimit:10;}
</style>
<g>
	<g>
		<path class="st0" d="M586.5,305.5c1.4,21.3-10,39.2-23,40.1c-1.7,0.1-3,0.4-2.8-0.7c1.2-6.2,0.2-9.6,0.2-21.2
			c0-2.2-0.3-13.5-2.6-25.7c-2.9-14.8-6.4-26.9-6.4-26.9c0.9-1.4,2.9-2.1,6.5-2.4C571.3,267.8,585,284.3,586.5,305.5z"/>
		<g>
			<path class="st1" d="M48.4,371.9H6.2c-2.3,0-4.1-1.8-4.1-4.1v-92c0-2.3,1.8-4.1,4.1-4.1h46.6L48.4,371.9z"/>
			<circle class="st2" cx="27.4" cy="298.6" r="9.8"/>
			<circle class="st3" cx="27.4" cy="334.6" r="9.8"/>
			<circle class="st4" cx="27.4" cy="334.6" r="4.9"/>
		</g>
		<path class="st5" d="M467.8,152.8c12.5-10.4,20.4-25.5,20.4-42.3c0-31.3-27.4-56.7-61.1-56.7c-31.8,0-58,22.6-60.8,51.5
			c-19.7-4.5-40.3-6.9-61.5-6.9c-19.6,0-38.7,2.1-57,5.9c-3.3-28.4-29.2-50.5-60.7-50.5c-33.7,0-61.1,25.4-61.1,56.7
			c0,15.8,7,30.1,18.3,40.4c-58.2,43.6-95.5,110.3-95.5,185.2c0,131.3,114.7,237.7,256.1,237.7s256.1-106.4,256.1-237.7
			C560.9,262.3,524.6,196.4,467.8,152.8z"/>
	</g>
	<g id="g236">
		<g id="g238">
			<path id="path2383_2_" class="st6" d="M531.2,536.3c0,101.6-100.6,184-224.7,184c-124.1,0-224.7-82.4-224.7-184
				c0-101.6,100.6-184,224.7-184C430.7,352.3,531.3,434.6,531.2,536.3z"/>
			<path id="path3353" class="st7" d="M530.4,552.4c-42.7,76.7-137.3,130.1-247,130.1c-62.2,0-119.5-17.1-165.2-46
				c40.1,50.4,109.5,83.8,188.4,83.8C424,720.3,520.4,646.4,530.4,552.4z"/>
		</g>
		<g id="g242">
			<g id="g244">
				<path id="path3245" class="st6" d="M107.5,701.7c0,46.5,37.7,52.4,84.2,52.4c46.5,0,84.2-5.9,84.2-52.4
					c0-46.5-39.3-72.2-84.2-84.2C121.8,598.7,107.5,655.2,107.5,701.7z"/>
				<path id="path3297" class="st7" d="M218.3,626.6c11.5,15.1,18.6,34,18.6,57.2c0,55-37.7,62-84.2,62c-7.2,0-14.2-0.2-20.8-0.7
					c15.3,7.4,36.4,8.9,59.8,8.9c46.5,0,84.2-6,84.2-52.5C275.9,664.7,251.1,640.9,218.3,626.6z"/>
				<g id="g248">
					<path id="path3239" class="st8" d="M257.2,727.9c3.4,12.6-6.7,17-19.6,20.4c-12.9,3.5-23.8,4.7-27.2-7.9
						c-3.4-12.6,4.4-25.6,17.3-29C240.7,708,253.9,715.3,257.2,727.9z"/>
					<path id="path3241" class="st8" d="M172.2,741.5c-3.4,12.6-14.3,11.4-27.2,7.9c-12.9-3.5-23-7.9-19.6-20.4
						c3.4-12.6,16.6-20,29.5-16.5C167.9,716,175.6,729,172.2,741.5z"/>
					<path id="path3243" class="st8" d="M213.8,739.5c0,13-10.8,14.7-24.2,14.7c-13.4,0-24.2-1.7-24.2-14.7
						c0-13,10.8-23.6,24.2-23.6C203,715.9,213.8,726.4,213.8,739.5z"/>
				</g>
			</g>
			<g id="g253">
				<path id="path3220" class="st6" d="M505.6,701.7c0,46.5-37.7,52.4-84.2,52.4c-46.5,0-84.2-5.9-84.2-52.4
					c0-46.5,39.3-72.2,84.2-84.2C491.3,598.7,505.6,655.2,505.6,701.7z"/>
				<g id="g256">
					<path id="path3235_1_" class="st8" d="M489,727.9c3.4,12.6-6.7,17-19.6,20.4c-12.9,3.5-23.8,4.7-27.2-7.9
						c-3.4-12.6,4.4-25.6,17.3-29C472.5,708,485.7,715.3,489,727.9z"/>
					<path id="path3237" class="st8" d="M404,741.5c-3.4,12.6-14.3,11.4-27.2,7.9c-12.9-3.5-23-7.9-19.6-20.4
						c3.4-12.6,16.6-20,29.5-16.5C399.6,716,407.4,729,404,741.5z"/>
					<path id="path3224" class="st8" d="M445.6,739.5c0,13-10.8,14.7-24.2,14.7c-13.4,0-24.2-1.7-24.2-14.7
						c0-13,10.8-23.6,24.2-23.6C434.8,715.9,445.6,726.4,445.6,739.5z"/>
				</g>
				<path id="path3358" class="st7" d="M459.4,615c21.7,16.7,27.4,50.6,27.4,80.5c0,48.1-39,54.3-87.1,54.3
					c-10.4,0-20.4-0.3-29.7-1.3c14.2,4.6,32,5.6,51.4,5.6c46.5,0,84.2-5.9,84.2-52.4C505.6,665.2,496.8,622.7,459.4,615z"/>
			</g>
		</g>
	</g>
	<g>
		<g>
			<rect x="192.4" y="412" class="st9" width="218.1" height="86.4"/>
			<g>
				<g>
					<path class="st6" d="M386.6,138.1c-4.4,10.2-1.4,24.5,8.3,30.9l0.3,0.2c9.7,6.5,23.6,4.3,31.7-4.3l36.6-41.5
						c6.5-9.7,3.9-22.8-5.8-29.3l-18.9-12.6c-9.7-6.5-22.8-3.8-29.3,5.9L386.6,138.1z"/>
					<path class="st10" d="M406.9,130c-2.3,5.4-0.7,12.9,4.4,16.3l0.2,0.1c5.1,3.4,12.5,2.3,16.8-2.3l19.3-21.9
						c3.4-5.1,2-12.1-3.1-15.5l-10-6.6c-5.1-3.4-12-2-15.5,3.1L406.9,130z"/>
				</g>
				<g>
					<path class="st6" d="M232.1,136.2c5,10,2.8,24.4-6.5,31.4l-0.3,0.2c-9.3,7.1-23.3,5.8-32-2.3l-39-39.2
						c-7.1-9.3-5.2-22.6,4.1-29.6L176.5,83c9.3-7.1,22.6-5.2,29.6,4.1L232.1,136.2z"/>
					<path class="st11" d="M213.4,129.1c2.7,5.3,1.5,12.9-3.4,16.6l-0.1,0.1c-4.9,3.7-12.3,3.1-16.9-1.2l-20.6-20.7
						c-3.7-4.9-2.8-11.9,2.2-15.7l9.6-7.3c4.9-3.7,11.9-2.8,15.7,2.2L213.4,129.1z"/>
				</g>
				<path class="st6" d="M486.3,291.5c0-97.5-79.1-176.6-176.6-176.6C212.1,114.9,133,194,133,291.5H486.3z"/>
				<path class="st6" d="M525.3,401.6c0-120.9-98-218.9-218.9-218.9s-218.9,98-218.9,218.9c0,0,146.5,49,218.8,49
					S525.3,401.6,525.3,401.6z"/>
				<g>
					<path class="st12" d="M195.8,245.9C184,225.8,158.1,219,138,230.8c-20.1,11.8-26.9,37.7-15.1,57.8L195.8,245.9z"/>
					<path class="st13" d="M181.6,254.3c-7.2-12.3-23-16.4-35.3-9.2c-12.3,7.2-16.4,23-9.2,35.3L181.6,254.3z"/>
				</g>
				<g>
					<path class="st12" d="M486.7,281.3c10-19.1,2.7-42.7-16.4-52.7c-19.1-10-42.7-2.7-52.7,16.4L486.7,281.3z"/>
					<path class="st13" d="M473.3,274.2c6.1-11.6,1.6-26-10-32.2c-11.6-6.1-26-1.6-32.1,10L473.3,274.2z"/>
				</g>
				<path class="st13" d="M227.9,180.9c0,5.5-4.5,10-10,10c-5.5,0-10-4.5-10-10c0-5.5,4.5-10,10-10
					C223.4,170.9,227.9,175.4,227.9,180.9"/>
				<path class="st13" d="M403.5,180.9c0,5.5-4.5,10-10,10c-5.5,0-10-4.5-10-10c0-5.5,4.5-10,10-10
					C399.1,170.9,403.5,175.4,403.5,180.9"/>
				<path class="st14" d="M203.3,438.1c0,12.6-8,22.8-17.9,22.8h-56.7c-9.9,0-17.9-10.2-17.9-22.8v-24.5c0-12.6,8-22.8,17.9-22.8
					h56.7c9.9,0,17.9,10.2,17.9,22.8V438.1z"/>
				<path class="st15" d="M491.6,438.1c0,12.6-8,22.8-17.9,22.8H417c-9.9,0-17.9-10.2-17.9-22.8v-24.5c0-12.6,8-22.8,17.9-22.8h56.7
					c9.9,0,17.9,10.2,17.9,22.8V438.1z"/>
				<path class="st6" d="M525.1,401.4c0,76.7-97.9,138.9-218.8,138.9c-120.8,0-218.8-62.2-218.8-138.9c72.9,0,145.8,76.8,218.8,76.8
					C379.2,478.2,452.2,401.4,525.1,401.4z"/>
				<g>
					<line class="st16" x1="306.3" y1="394.9" x2="306.3" y2="447.6"/>
					<path class="st17" d="M304.8,432l-13.4,13.4c-1.4,1.4-0.4,3.8,1.6,3.8h26.9c2,0,3-2.4,1.6-3.8L307.9,432
						C307,431.2,305.6,431.2,304.8,432z"/>
				</g>
			</g>
		</g>
		<path id="path3353_00000177448834362767914410000010611342698353382550_" class="st7" d="M525.3,401.6
			c-42.8,65.1-137.4,110.3-247.2,110.3c-62.3,0-119.6-14.5-165.4-39c40.1,42.8,109.6,71,188.6,71C418.9,544,515.4,481.4,525.3,401.6
			z"/>
	</g>
	<path class="st18" d="M469.3,154.9c3.5-4.2,20.8-25.4,16-50.4c-7-36.3-57.7-61.7-89.9-43.7c-13.3,7.4-24.4,21.3-29.7,43.4
		c-39.3-8.6-80.2-7.7-119.4,1.5C225.5,0.2,75.7,69.5,142.7,153.6C56.3,218.3,25.9,289,62.3,406.4c79.2-110.7,150.9-151.5,197.6-169
		c12.2-4.6,26.1-8.1,44.8-13.3c83-23,151-35.9,196.7-43.3C490.7,172.2,480,163.5,469.3,154.9z"/>
	<g>
		<circle class="st19" cx="293.5" cy="17.4" r="14.3"/>
		<line class="st20" x1="292.3" y1="58.4" x2="292.3" y2="78.9"/>
		<line class="st20" x1="289.2" y1="80.7" x2="309.7" y2="80.7"/>
		<line class="st20" x1="306.6" y1="78.6" x2="306.6" y2="99.1"/>
		<line class="st20" x1="289.2" y1="61.2" x2="309.7" y2="61.2"/>
		<line class="st20" x1="306.6" y1="43.6" x2="306.6" y2="64.1"/>
		<line class="st20" x1="309.7" y1="46.6" x2="289.2" y2="46.6"/>
		<line class="st20" x1="292.3" y1="49.6" x2="292.3" y2="29.1"/>
	</g>
</g>
<path class="st5" d="M467.8,152.8c12.5-10.4,20.4-25.5,20.4-42.3c0-31.3-27.4-56.7-61.1-56.7c-31.8,0-58,22.6-60.8,51.5
	c-19.7-4.5-40.3-6.9-61.5-6.9c-19.6,0-38.7,2.1-57,5.9c-3.3-28.4-29.2-50.5-60.7-50.5c-33.7,0-61.1,25.4-61.1,56.7
	c0,15.8,7,30.1,18.3,40.4c-58.2,43.6-95.5,110.3-95.5,185.2c0,131.3,114.7,237.7,256.1,237.7s256.1-106.4,256.1-237.7
	C560.9,262.3,524.6,196.4,467.8,152.8z"/>
<g>
</g>
<g>
</g>
<g>
</g>
<g>
</g>
<g>
</g>
<g>
</g>
</svg>
