<?xml version="1.0" encoding="UTF-8"?>
<svg id="a" xmlns="http://www.w3.org/2000/svg" viewBox="0 0 590.67 1253.28">
    <path id="b"
          d="M182.85,814.17l-2.7,68.5,36-11.1,19.7,224.5,30.4-60.3,28.7-58.8,26.9,141.7,20.1,95.2,6.5,30,2.9,9.4,52.8-308.8,44.7,24.3-19.5-155.1-246.5.5"
          fill="#f6a91f" stroke-width="0"/>
    <path id="c"
          d="M212.77,709.26l147.55,71.97,3.26,121.6-25.38-31.28-48.31,215.44-1.18-7.76-2.27-24.22-6.89-77.14-8.43-113.83-20.39,35.51-21.48,36.22.45-173.57-22.11-2.35,5.17-50.57"
          fill="#f36b26" stroke-width="0"/>
    <path id="d"
          d="M268.6,769.47l138.85-23.75,13.96,115.95-25.65-14.11-23.84,239.43-1.81-6.82-4.26-22.11-13.14-70.32-17.85-105.13-15.04,47.51-15.95,48.69-15.41-168.63-20.03,11.76.18-52.45"
          fill="#f36b26" stroke-width="0"/>
    <path d="M467.75,152.77c12.5-10.4,20.4-25.5,20.4-42.3,0-31.3-27.4-56.7-61.1-56.7-31.8,0-58,22.6-60.8,51.5-19.7-4.5-40.3-6.9-61.5-6.9-19.6,0-38.7,2.1-57,5.9-3.3-28.4-29.2-50.5-60.7-50.5-33.7,0-61.1,25.4-61.1,56.7,0,15.8,7,30.1,18.3,40.4-58.2,43.6-95.5,110.3-95.5,185.2,0,131.3,114.7,237.7,256.1,237.7s256.1-106.4,256.1-237.7c-.1-73.8-36.4-139.7-93.2-183.3h0Z"
          fill="none" stroke="#231f20" stroke-linejoin="round" stroke-width="12.31"/>
    <path id="e" d="M158.25,835.08l3.4,4.1,7.8,5.3,15.1,4.5,17,3.7,47.3,4.9,56.7,1.2.6-23-147.9-.7" fill="#f0514e"
          stroke-width="0"/>
    <path id="f" d="M158.15,835.88l149.5,1.3.8-116.9h-128l-22.3,115.6" fill="#fff" stroke-width="0"/>
    <path id="g" d="M453.95,834.17l-1.2,4.8-8.8,4.1-13.5,4.5-17.9,3.3-48,6.7-58.5.9.7-22.6,147.2-1.7" fill="#a83a36"
          stroke-width="0"/>
    <path id="h" d="M456.55,835.28l-149.8,1.8.6-116.7,126.4,1.5,22.8,113.4" fill="#c6c5c5" stroke-width="0"/>
    <path d="M586.45,305.48c1.4,21.3-10,39.2-23,40.1-1.7.1-3,.4-2.8-.7,1.2-6.2.2-9.6.2-21.2,0-2.2-.3-13.5-2.6-25.7-2.9-14.8-6.4-26.9-6.4-26.9.9-1.4,2.9-2.1,6.5-2.4,12.9-.9,26.6,15.6,28.1,36.8h0Z"
          fill="#919cab" stroke="#231f20" stroke-linecap="round" stroke-linejoin="round" stroke-width="8.2"/>
    <path d="M48.35,371.88H6.15c-2.3,0-4.1-1.8-4.1-4.1v-92c0-2.3,1.8-4.1,4.1-4.1h46.6c0-.1-4.4,100.2-4.4,100.2Z"
          fill="#919cab" stroke="#232020" stroke-linecap="round" stroke-linejoin="round" stroke-width="4.1"/>
    <circle cx="27.35" cy="298.57" r="9.8" fill="#d12028" stroke="#232020" stroke-linecap="round"
            stroke-linejoin="round" stroke-width="5"/>
    <circle cx="27.35" cy="334.57" r="9.8" stroke="#232020" stroke-miterlimit="10" stroke-width="5"/>
    <circle cx="27.35" cy="334.57" r="4.9" stroke-width="0"/>
    <path d="M467.75,152.77c12.5-10.4,20.4-25.5,20.4-42.3,0-31.3-27.4-56.7-61.1-56.7-31.8,0-58,22.6-60.8,51.5-19.7-4.5-40.3-6.9-61.5-6.9-19.6,0-38.7,2.1-57,5.9-3.3-28.4-29.2-50.5-60.7-50.5-33.7,0-61.1,25.4-61.1,56.7,0,15.8,7,30.1,18.3,40.4-58.2,43.6-95.5,110.3-95.5,185.2,0,131.3,114.7,237.7,256.1,237.7s256.1-106.4,256.1-237.7c-.1-73.8-36.4-139.7-93.2-183.3h0Z"
          fill="none" stroke="#231f20" stroke-linejoin="round" stroke-width="12.31"/>
    <g id="i">
        <g id="j">
            <path id="k"
                  d="M531.15,536.28c0,101.6-100.6,184-224.7,184s-224.7-82.4-224.7-184,100.6-184,224.7-184,224.8,82.3,224.7,184h0Z"
                  fill="#919cab" stroke="#020202" stroke-linecap="round" stroke-linejoin="round" stroke-width="8.2"/>
            <path id="l"
                  d="M530.35,552.38c-42.7,76.7-137.3,130.1-247,130.1-62.2,0-119.5-17.1-165.2-46,40.1,50.4,109.5,83.8,188.4,83.8,117.4,0,213.8-73.9,223.8-167.9Z"
                  opacity=".6" stroke-width="0"/>
        </g>
        <g id="m">
            <g id="n">
                <path id="o"
                      d="M107.45,701.67c0,46.5,37.7,52.4,84.2,52.4s84.2-5.9,84.2-52.4-39.3-72.2-84.2-84.2c-69.9-18.8-84.2,37.7-84.2,84.2h0Z"
                      fill="#919cab" stroke="#020202" stroke-linecap="round" stroke-linejoin="round"
                      stroke-width="8.2"/>
                <path id="p"
                      d="M218.25,626.58c11.5,15.1,18.6,34,18.6,57.2,0,55-37.7,62-84.2,62-7.2,0-14.2-.2-20.8-.7,15.3,7.4,36.4,8.9,59.8,8.9,46.5,0,84.2-6,84.2-52.5,0-36.8-24.8-60.6-57.6-74.9h0Z"
                      opacity=".6" stroke-width="0"/>
                <g id="q">
                    <path id="r"
                          d="M257.15,727.88c3.4,12.6-6.7,17-19.6,20.4-12.9,3.5-23.8,4.7-27.2-7.9-3.4-12.6,4.4-25.6,17.3-29,13-3.4,26.2,3.9,29.5,16.5h0Z"
                          fill="#fff" stroke="#020202" stroke-linecap="round" stroke-linejoin="round"
                          stroke-width="8.2"/>
                    <path id="s"
                          d="M172.15,741.47c-3.4,12.6-14.3,11.4-27.2,7.9s-23-7.9-19.6-20.4c3.4-12.6,16.6-20,29.5-16.5,13,3.5,20.7,16.5,17.3,29h0Z"
                          fill="#fff" stroke="#020202" stroke-linecap="round" stroke-linejoin="round"
                          stroke-width="8.2"/>
                    <path id="t"
                          d="M213.75,739.47c0,13-10.8,14.7-24.2,14.7s-24.2-1.7-24.2-14.7,10.8-23.6,24.2-23.6,24.2,10.5,24.2,23.6Z"
                          fill="#fff" stroke="#020202" stroke-linecap="round" stroke-linejoin="round"
                          stroke-width="8.2"/>
                </g>
            </g>
            <g id="u">
                <path id="v"
                      d="M505.55,701.67c0,46.5-37.7,52.4-84.2,52.4s-84.2-5.9-84.2-52.4,39.3-72.2,84.2-84.2c69.9-18.8,84.2,37.7,84.2,84.2Z"
                      fill="#919cab" stroke="#020202" stroke-linecap="round" stroke-linejoin="round"
                      stroke-width="8.2"/>
                <g id="w">
                    <path id="x"
                          d="M488.95,727.88c3.4,12.6-6.7,17-19.6,20.4-12.9,3.5-23.8,4.7-27.2-7.9-3.4-12.6,4.4-25.6,17.3-29,13-3.4,26.2,3.9,29.5,16.5h0Z"
                          fill="#fff" stroke="#020202" stroke-linecap="round" stroke-linejoin="round"
                          stroke-width="8.2"/>
                    <path id="y"
                          d="M403.95,741.47c-3.4,12.6-14.3,11.4-27.2,7.9-12.9-3.5-23-7.9-19.6-20.4,3.4-12.6,16.6-20,29.5-16.5s20.7,16.5,17.3,29h0Z"
                          fill="#fff" stroke="#020202" stroke-linecap="round" stroke-linejoin="round"
                          stroke-width="8.2"/>
                    <path id="z"
                          d="M445.55,739.47c0,13-10.8,14.7-24.2,14.7s-24.2-1.7-24.2-14.7,10.8-23.6,24.2-23.6,24.2,10.5,24.2,23.6Z"
                          fill="#fff" stroke="#020202" stroke-linecap="round" stroke-linejoin="round"
                          stroke-width="8.2"/>
                </g>
                <path id="aa"
                      d="M459.35,614.97c21.7,16.7,27.4,50.6,27.4,80.5,0,48.1-39,54.3-87.1,54.3-10.4,0-20.4-.3-29.7-1.3,14.2,4.6,32,5.6,51.4,5.6,46.5,0,84.2-5.9,84.2-52.4,0-36.5-8.8-79-46.2-86.7h0Z"
                      opacity=".6" stroke-width="0"/>
            </g>
        </g>
    </g>
    <rect x="192.35" y="411.98" width="218.1" height="86.4" fill="#f5a6ac" stroke-width="0"/>
    <path d="M386.55,138.08c-4.4,10.2-1.4,24.5,8.3,30.9l.3.2c9.7,6.5,23.6,4.3,31.7-4.3l36.6-41.5c6.5-9.7,3.9-22.8-5.8-29.3l-18.9-12.6c-9.7-6.5-22.8-3.8-29.3,5.9l-22.9,50.7h0Z"
          fill="#919cab" stroke="#020202" stroke-linecap="round" stroke-linejoin="round" stroke-width="8.2"/>
    <path d="M406.85,129.97c-2.3,5.4-.7,12.9,4.4,16.3l.2.1c5.1,3.4,12.5,2.3,16.8-2.3l19.3-21.9c3.4-5.1,2-12.1-3.1-15.5l-10-6.6c-5.1-3.4-12-2-15.5,3.1l-12.1,26.8h0Z"
          opacity=".6" stroke="#232020" stroke-miterlimit="10" stroke-width="4.1"/>
    <path d="M232.05,136.17c5,10,2.8,24.4-6.5,31.4l-.3.2c-9.3,7.1-23.3,5.8-32-2.3l-39-39.2c-7.1-9.3-5.2-22.6,4.1-29.6l18.1-13.7c9.3-7.1,22.6-5.2,29.6,4.1l26,49.1h0Z"
          fill="#919cab" stroke="#020202" stroke-linecap="round" stroke-linejoin="round" stroke-width="8.2"/>
    <path d="M213.35,129.08c2.7,5.3,1.5,12.9-3.4,16.6l-.1.1c-4.9,3.7-12.3,3.1-16.9-1.2l-20.6-20.7c-3.7-4.9-2.8-11.9,2.2-15.7l9.6-7.3c4.9-3.7,11.9-2.8,15.7,2.2l13.5,26h0Z"
          opacity=".6" stroke="#020202" stroke-miterlimit="10" stroke-width="4.1"/>
    <path d="M486.25,291.48c0-97.5-79.1-176.6-176.6-176.6s-176.7,79.1-176.7,176.6h353.3Z" fill="#919cab"
          stroke="#020202" stroke-linecap="round" stroke-linejoin="round" stroke-width="8.2"/>
    <path d="M525.25,401.57c0-120.9-98-218.9-218.9-218.9s-218.9,98-218.9,218.9c0,0,146.5,49,218.8,49s219-49,219-49Z"
          fill="#919cab" stroke="#020202" stroke-linecap="round" stroke-linejoin="round" stroke-width="8.2"/>
    <path d="M195.75,245.88c-11.8-20.1-37.7-26.9-57.8-15.1-20.1,11.8-26.9,37.7-15.1,57.8l72.9-42.7h0Z" fill="#919cab"
          stroke="#020202" stroke-linecap="round" stroke-linejoin="round" stroke-width="4.1"/>
    <path d="M181.55,254.27c-7.2-12.3-23-16.4-35.3-9.2s-16.4,23-9.2,35.3l44.5-26.1h0Z" fill="#232020" stroke-width="0"/>
    <path d="M486.65,281.27c10-19.1,2.7-42.7-16.4-52.7s-42.7-2.7-52.7,16.4l69.1,36.3h0Z" fill="#919cab" stroke="#020202"
          stroke-linecap="round" stroke-linejoin="round" stroke-width="4.1"/>
    <path d="M473.25,274.17c6.1-11.6,1.6-26-10-32.2-11.6-6.1-26-1.6-32.1,10l42.1,22.2Z" fill="#232020"
          stroke-width="0"/>
    <path d="M227.85,180.88c0,5.5-4.5,10-10,10s-10-4.5-10-10,4.5-10,10-10,10,4.5,10,10" fill="#232020"
          stroke-width="0"/>
    <path d="M403.45,180.88c0,5.5-4.5,10-10,10s-10-4.5-10-10,4.5-10,10-10,10,4.5,10,10" fill="#232020"
          stroke-width="0"/>
    <path d="M203.25,438.07c0,12.6-8,22.8-17.9,22.8h-56.7c-9.9,0-17.9-10.2-17.9-22.8v-24.5c0-12.6,8-22.8,17.9-22.8h56.7c9.9,0,17.9,10.2,17.9,22.8v24.5Z"
          fill="#fff" stroke="#231f20" stroke-miterlimit="10" stroke-width="7.28"/>
    <path d="M491.55,438.07c0,12.6-8,22.8-17.9,22.8h-56.7c-9.9,0-17.9-10.2-17.9-22.8v-24.5c0-12.6,8-22.8,17.9-22.8h56.7c9.9,0,17.9,10.2,17.9,22.8v24.5Z"
          fill="#fff" stroke="#231f20" stroke-miterlimit="10" stroke-width="7.28"/>
    <path d="M525.05,401.38c0,76.7-97.9,138.9-218.8,138.9s-218.8-62.2-218.8-138.9c72.9,0,145.8,76.8,218.8,76.8s145.9-76.8,218.8-76.8h0Z"
          fill="#919cab" stroke="#020202" stroke-linecap="round" stroke-linejoin="round" stroke-width="8.2"/>
    <line x1="306.25" y1="394.88" x2="306.25" y2="447.57" fill="none" stroke="#231f20" stroke-linecap="round"
          stroke-linejoin="round" stroke-width="6.15"/>
    <path d="M304.75,431.98l-13.4,13.4c-1.4,1.4-.4,3.8,1.6,3.8h26.9c2,0,3-2.4,1.6-3.8l-13.6-13.4c-.9-.8-2.3-.8-3.1,0h0Z"
          stroke="#020202" stroke-linecap="round" stroke-linejoin="round" stroke-width="6.22"/>
    <path id="ab"
          d="M525.25,401.57c-42.8,65.1-137.4,110.3-247.2,110.3-62.3,0-119.6-14.5-165.4-39,40.1,42.8,109.6,71,188.6,71,117.6.1,214.1-62.5,224-142.3h0Z"
          opacity=".6" stroke-width="0"/>
    <path d="M470.85,157.08c3.5-4.2,20.8-25.4,16-50.4-7-36.3-57.7-61.7-89.9-43.7-13.3,7.4-24.4,21.3-29.7,43.4-39.3-8.6-80.2-7.7-119.4,1.5-20.8-105.5-170.6-36.2-103.6,47.9C57.85,220.47,27.45,291.17,63.85,408.57c79.1-110.6,150.9-151.5,197.6-168.9,12.2-4.6,26.1-8.1,44.8-13.3,83-23,151-35.9,196.7-43.3-10.7-8.7-21.4-17.3-32.1-26h0Z"
          fill="#59c8e7" opacity=".2" stroke-width="0"/>
    <circle cx="293.45" cy="17.38" r="14.3" fill="#919cab" stroke="#020202" stroke-linecap="round"
            stroke-linejoin="round" stroke-width="6.15"/>
    <line x1="292.25" y1="58.38" x2="292.25" y2="78.87" fill="none" stroke="#020202" stroke-miterlimit="10"
          stroke-width="6.15"/>
    <line x1="289.15" y1="80.68" x2="309.65" y2="80.68" fill="none" stroke="#020202" stroke-miterlimit="10"
          stroke-width="6.15"/>
    <line x1="306.55" y1="78.58" x2="306.55" y2="99.08" fill="none" stroke="#020202" stroke-miterlimit="10"
          stroke-width="6.15"/>
    <line x1="289.15" y1="61.18" x2="309.65" y2="61.18" fill="none" stroke="#020202" stroke-miterlimit="10"
          stroke-width="6.15"/>
    <line x1="306.55" y1="43.58" x2="306.55" y2="64.08" fill="none" stroke="#020202" stroke-miterlimit="10"
          stroke-width="6.15"/>
    <line x1="309.65" y1="46.58" x2="289.15" y2="46.58" fill="none" stroke="#020202" stroke-miterlimit="10"
          stroke-width="6.15"/>
    <line x1="292.25" y1="49.58" x2="292.25" y2="29.08" fill="none" stroke="#020202" stroke-miterlimit="10"
          stroke-width="6.15"/>
</svg>
