<svg xmlns="http://www.w3.org/2000/svg" viewBox="0 0 175.2 46.8"><path d="M139.8 0a1.6 1.6 0 0 0-1.5 1.4v.2a1.3 1.3 0 0 0 1 1.3c.5.3 3.7 3.3 5 18l.1.9a32.3 32.3 0 0 0 1.2 7.1c1.2 3.4 3.3 4.2 4.9 4.2h.2c2-.1 3.6-1.4 5-3.4a5.3 5.3 0 0 0 3.8.4c3.1-1 5-5 7-9.6 2-4.4 4.2-9.2 7.6-11.2a1.5 1.5 0 0 0 1-1.7 1.5 1.5 0 0 0-1.6-1.3c-9.2 1.1-13.6 9.5-17 16.2L155 25a28 28 0 0 1-1-6.7c-.3-5.1-.7-11-4.6-14.4-3-2.6-6-3.9-8.9-3.9h-.8m7.6 21.5v-.9c-.8-7.5-2-13-3.8-16.7l-.2-.4a13.8 13.8 0 0 1 4.1 2.6c3 2.7 3.4 7.9 3.7 12.4.3 3.7.5 7.2 2.1 9.4-.9 1.3-1.8 2.1-2.7 2.2-2.2 0-2.7-3.7-3.2-8.6m9.9 5.7 1.8-3.3c2.2-4.4 4.7-9.1 8.5-12a58.9 58.9 0 0 0-3.8 7.3c-1.6 3.7-3.3 7.4-5.2 8a1.6 1.6 0 0 1-.6 0 2.5 2.5 0 0 1-.7 0m-11.1 18.9.3-2.5a.2.2 0 0 1 .2-.2h.2a.2.2 0 0 1 .2.1l.9 2 .8-2a.2.2 0 0 1 .2-.1h.2a.2.2 0 0 1 .2.2l.3 2.5a.2.2 0 0 1-.2.2h-.2a.2.2 0 0 1-.2-.1l-.1-1.9-.8 1.8a.2.2 0 0 1-.2.2.2.2 0 0 1-.3-.2l-.7-1.8-.2 1.9a.2.2 0 0 1-.2.1h-.2a.2.2 0 0 1-.2-.2m-2.4-.4v-.2h.2l.3.1a.6.6 0 0 0 .5.3c.4 0 .6-.2.6-.4s-.2-.3-.4-.4l-.4-.1a1 1 0 0 1-.8-.8.9.9 0 0 1 1-.9 1 1 0 0 1 1 .6.1.1 0 0 1-.1.2h-.2a.2.2 0 0 1-.2 0 .5.5 0 0 0-.5-.3c-.2 0-.4.1-.4.4 0 0 0 .2.3.3l.4.2c.6.1.8.5.8.8 0 .6-.5.9-1 .9a1 1 0 0 1-1.1-.6m-14-5.8V29.7h-2.4a.7.7 0 0 1-.8-.8v-1.5a.7.7 0 0 1 .8-.8h2.4l.7-4.6a1.2 1.2 0 0 1 1.3-1.1h.8a1.1 1.1 0 0 1 1.2 1.2v4.5h5.4a.7.7 0 0 1 .8.8v1.5a.7.7 0 0 1-.8.8h-5.4v10.6c0 2.1 1 3 2.3 3a2.1 2.1 0 0 0 2.3-2.2 3 3 0 0 0 0-.7c-.1-.6 0-1 .6-1h1.8a.8.8 0 0 1 1 .8 7.2 7.2 0 0 1 .1 1.4c0 3-2.1 5.1-5.9 5.1-3.1 0-6.2-1.6-6.2-6.7m-23.2 5V28a1.3 1.3 0 0 1 1.5-1.3h1.2a1.3 1.3 0 0 1 1.4 1.4v2.4c.8-2.7 3.4-4.3 6.5-4.3 4.4 0 7.6 2.9 7.6 9V45a1.3 1.3 0 0 1-1.5 1.4h-1.1a1.3 1.3 0 0 1-1.5-1.4v-9.7c0-4-1.8-5.5-3.9-5.5-2 0-6.1 1.4-6.1 7.4V45a1.3 1.3 0 0 1-1.4 1.4H108a1.3 1.3 0 0 1-1.5-1.4m-9.1-8.5c0-3.9-2.7-6.8-6.6-6.8-4 0-6.2 3.2-6.2 6.8 0 3.7 2.2 6.8 6.2 6.8 3.9 0 6.5-2.9 6.6-6.8m-16.9 0c0-5.7 3.9-10.3 9.8-10.3a8.1 8.1 0 0 1 7 3.6V28a1.3 1.3 0 0 1 1.5-1.4h1.1a1.3 1.3 0 0 1 1.4 1.4v16.9a1.3 1.3 0 0 1-1.4 1.4h-1.1a1.3 1.3 0 0 1-1.5-1.4v-1.7a8.1 8.1 0 0 1-7 3.5c-5.9 0-9.8-4.6-9.8-10.3M72.4 45V19.2a1.3 1.3 0 0 1 1.5-1.4H75a1.3 1.3 0 0 1 1.5 1.4V45a1.3 1.3 0 0 1-1.5 1.4h-1a1.3 1.3 0 0 1-1.5-1.4m-9.1-8.5c0-3.9-2.7-6.8-6.6-6.8-4 0-6.3 3.2-6.3 6.8 0 3.7 2.3 6.8 6.3 6.8 3.9 0 6.5-2.9 6.6-6.8m-17 0c0-5.7 4-10.3 9.8-10.3a8.1 8.1 0 0 1 7 3.6V28a1.3 1.3 0 0 1 1.5-1.4h1.2a1.3 1.3 0 0 1 1.4 1.4v16.9a1.3 1.3 0 0 1-1.4 1.4h-1.2a1.3 1.3 0 0 1-1.4-1.4v-1.7a8.1 8.1 0 0 1-7 3.6c-6 0-9.8-4.7-9.8-10.4M32 40V29.7h-2.4a.7.7 0 0 1-.8-.8v-1.5a.7.7 0 0 1 .8-.8h2.5l.7-4.6a1.2 1.2 0 0 1 1.2-1h.9a1.1 1.1 0 0 1 1.1 1.2v4.5h5.4a.7.7 0 0 1 .8.8V29a.7.7 0 0 1-.8.8H36v10.6c0 2.1 1 3 2.3 3a2.1 2.1 0 0 0 2.3-2.2 3 3 0 0 0 0-.7c-.1-.6.1-1 .7-1h1.8a.8.8 0 0 1 .9.8 7.2 7.2 0 0 1 .1 1.4c0 3-2 5.1-5.9 5.1-3.1 0-6.2-1.6-6.2-6.7M21.7 45V28a1.3 1.3 0 0 1 1.5-1.3h1.2a1.3 1.3 0 0 1 1.4 1.4V45a1.3 1.3 0 0 1-1.4 1.4h-1.2a1.3 1.3 0 0 1-1.5-1.4M21 20.3a2.7 2.7 0 0 1 2.7-2.8 2.7 2.7 0 1 1 0 5.5 2.6 2.6 0 0 1-2.7-2.7M6.7 45.2l-6.6-17c-.3-1 0-1.6 1.1-1.6h1.3a1.6 1.6 0 0 1 1.7 1.1L9.4 42l5.2-14.2a1.6 1.6 0 0 1 1.7-1.1h1.3c1 0 1.4.6 1 1.6l-6.5 17a1.7 1.7 0 0 1-1.7 1.1h-2a1.7 1.7 0 0 1-1.7-1.1"/></svg>
