<svg xmlns="http://www.w3.org/2000/svg" viewBox="0 0 448.8 222.8">
<path d="M153.3,90.6v55.2l-0.2,0.2l-26.8-55.4h-22.4v70.5H118v-58.4l0.2-0.2l27.8,58.6h21.5V90.6H153.3z"/>
<path d="M199.5,120.3c7.1,0,8.6,5,8.6,10.3h-17C191.3,125.3,192.7,120.3,199.5,120.3 M199.5,152.8
	c-7.5,0-8.4-6-8.4-12.3h32.1c0-3.2,0-6.3-0.4-9.4c-0.4-3.1-1.1-6.1-2.4-8.8c-4.1-8.6-11.7-11.7-20.9-11.7
	c-14.9,0-23.5,11.3-23.5,26.1c0,16.4,6.7,25.9,23.5,25.9c11.4,0,20.9-4,22.2-16.1h-13.2C207.1,150.9,204.6,152.8,199.5,152.8"/>
<path d="M260.3,135.8l16-23.7h-15l-9.7,15.8l-9.3-15.8h-17.1l15.8,22.5l-16.5,26.5h15.1l10.1-18.1l9.9,18.1h17.1
	L260.3,135.8z"/>
<path d="M295,124.7c0-3.2,1.9-4.4,5.9-4.4c3.3,0,6.4,1.5,6.6,4.8h13.2c-0.7-10.8-9.5-14.5-19.8-14.5
	c-8.6,0-21,4.5-21,14.7c0,11.4,8.7,13.5,18.1,15.7c2.9,0.7,9.9,2.3,9.9,6.2c0,3.8-3,5.5-7,5.5c-4.3,0-7.7-2.1-8-6h-13.6
	c0.2,11.2,10.2,15.7,21.6,15.7c9.1,0,22.2-5.4,22.2-16.1C323,128.1,295,132.5,295,124.7"/>
<path d="M359.4,121.8v-9.8h-11V97.1l-14.6,5.3v9.7h-9.9v9.8h9.9v24.1c0,10.6,2.4,16.6,13.9,16.6c2,0,9.9-0.7,11.5-1.5
	v-8.6c-1.6,0.1-3.1,0.3-4.7,0.3c-5.1,0-6.1-1.8-6.1-8.2v-22.7H359.4z"/>
<path d="M385.5,152.8c-4.1,0-7.1-2.9-7.1-7c0-7.9,10.4-7.8,15.5-7.7C393.8,143.8,393.6,152.8,385.5,152.8 M408.5,155.7
	v-26.8c0-14.7-11-18.3-20.9-18.3c-5.3,0-10.4,0.8-14.5,3.1c-3.9,2.3-6.5,6.1-6.6,12.2h14c-0.2-2.2,1.5-7,6.6-7c5.2,0,6.7,4,6.7,6
	v4.6c-5.8-0.2-13.3,0.1-19.1,2.6c-8.9,3.8-10.5,12.1-10.5,15.5c0,9.6,6.8,14.8,16,14.8c6.6,0,11.7-2.3,15-8h0.2c0,2,0.2,4.3,0.5,6.5
	h13.2C409,159.6,408.6,158.1,408.5,155.7"/>
<path d="M432.1,120.9h-0.2l-0.3-8.9h-13.4c0.2,3.6,0.5,7.7,0.5,9.8l0.1,39.2h14.5v-24.3c0.1-3.2,0.4-6,2-8.7
	c1.5-2,4.7-3.4,7.1-3.6h6.3v-13C441.5,111.3,435.2,113.2,432.1,120.9"/>
<path d="M169.4,70.9L154.2,0l-47.8,71H0l66.2,60.3L4.9,222.8l130.7-53.2l-46.5,0.1l-50.7,19.4l47.9-70.9l-42.2-37h67.1
	l27-40.3l7.2,40.3l0.2-0.1l-0.2,0.1h151.6l15.6-10.4L169.4,70.9z"/>
<path d="M162.6,174.5v16.2h2.8v-11.6l5.1,7.6h0.1l5.1-7.7v11.6h2.9v-16.2h-3l-4.9,7.7l-4.9-7.7H162.6z"/>
<path d="M184,174.5v16.2h12.2v-2.6h-9.3v-4.4h8.1v-2.6h-8.1V177h9.2v-2.6L184,174.5z"/>
<path d="M200.8,174.5v16.2h6.1c1.3,0,2.4-0.2,3.5-0.6c1.1-0.4,2-1,2.7-1.7c0.8-0.7,1.4-1.6,1.8-2.6
	c0.4-1,0.6-2.1,0.6-3.2c0-1.1-0.2-2.2-0.6-3.2c-0.4-1-1-1.9-1.8-2.6c-0.8-0.7-1.7-1.3-2.7-1.7c-1.1-0.4-2.2-0.6-3.5-0.6L200.8,174.5
	z M203.6,177.1h3.2c0.9,0,1.6,0.1,2.3,0.4c0.7,0.3,1.3,0.7,1.8,1.2c0.5,0.5,0.9,1.1,1.1,1.8c0.3,0.7,0.4,1.4,0.4,2.2
	c0,0.8-0.1,1.5-0.4,2.2c-0.3,0.7-0.6,1.2-1.1,1.7c-0.5,0.5-1.1,0.9-1.8,1.1c-0.7,0.3-1.5,0.4-2.3,0.4h-3.2V177.1z"/>
<path d="M220.3,174.5v16.2h2.9v-16.2H220.3z"/>
<path d="M234.4,174.3l-7.1,16.4h2.9l1.7-3.9h7.7l1.6,3.9h3l-7.1-16.4H234.4z M235.7,177.8l2.8,6.5h-5.6L235.7,177.8z"/>
<path d="M265.3,174.2c-1.2,0-2.4,0.2-3.4,0.7c-1,0.4-1.9,1.1-2.6,1.8c-0.7,0.8-1.3,1.6-1.7,2.7c-0.4,1-0.6,2.1-0.6,3.2
	c0,1.2,0.2,2.3,0.6,3.3c0.4,1,1,1.9,1.7,2.7c0.7,0.7,1.6,1.3,2.7,1.8c1,0.4,2.2,0.6,3.5,0.6c0.7,0,1.4-0.1,2-0.2
	c0.6-0.1,1.3-0.3,1.8-0.5c0.6-0.2,1.1-0.5,1.6-0.8c0.5-0.3,0.9-0.6,1.3-1v-6.8h-6.9v2.5h4.2v3c-0.5,0.4-1.1,0.7-1.8,0.9
	c-0.7,0.2-1.4,0.3-2.2,0.3c-0.8,0-1.6-0.1-2.3-0.4c-0.7-0.3-1.2-0.7-1.7-1.2c-0.5-0.5-0.9-1.1-1.1-1.9c-0.3-0.7-0.4-1.5-0.4-2.3
	c0-0.8,0.1-1.5,0.4-2.2c0.3-0.7,0.6-1.3,1.1-1.8c0.5-0.5,1-0.9,1.7-1.2c0.6-0.3,1.3-0.5,2.1-0.5c0.5,0,1,0,1.4,0.1
	c0.4,0.1,0.8,0.2,1.2,0.4c0.4,0.1,0.7,0.3,1,0.5c0.3,0.2,0.6,0.5,1,0.7l1.8-2.2c-0.4-0.4-0.8-0.7-1.3-0.9c-0.4-0.3-0.9-0.5-1.4-0.7
	c-0.5-0.2-1-0.3-1.6-0.4C266.7,174.2,266,174.2,265.3,174.2L265.3,174.2z"/>
<path d="M275.8,174.5v16.2h2.9V185h3.6l4,5.7h3.4l-4.4-6.1c0.6-0.2,1.1-0.4,1.6-0.7c0.5-0.3,0.9-0.6,1.2-1
	c0.3-0.4,0.6-0.9,0.8-1.4c0.2-0.5,0.3-1.2,0.3-1.8c0-0.8-0.1-1.5-0.4-2.1c-0.3-0.6-0.7-1.2-1.2-1.6c-0.5-0.4-1.1-0.8-1.9-1
	c-0.7-0.2-1.6-0.4-2.5-0.4L275.8,174.5z M278.7,177.1h4.2c1.1,0,1.9,0.2,2.5,0.7c0.6,0.4,0.9,1.1,0.9,2c0,0.8-0.3,1.5-0.9,2
	c-0.6,0.5-1.4,0.7-2.4,0.7h-4.2L278.7,177.1z"/>
<path d="M300.4,174.2c-1.3,0-2.4,0.2-3.4,0.7c-1,0.4-1.9,1.1-2.7,1.8c-0.8,0.8-1.3,1.6-1.8,2.7c-0.4,1-0.6,2.1-0.6,3.2
	c0,1.1,0.2,2.2,0.6,3.2c0.4,1,1,1.9,1.7,2.7c0.7,0.8,1.6,1.4,2.7,1.8c1,0.4,2.2,0.6,3.4,0.6c1.3,0,2.4-0.2,3.4-0.7
	c1-0.4,1.9-1.1,2.7-1.8c0.8-0.8,1.3-1.7,1.8-2.7c0.4-1,0.6-2.1,0.6-3.2c0-1.1-0.2-2.2-0.6-3.2c-0.4-1-1-1.9-1.7-2.7
	c-0.7-0.8-1.6-1.4-2.7-1.8C302.8,174.4,301.6,174.2,300.4,174.2L300.4,174.2z M300.4,176.8c0.8,0,1.5,0.2,2.2,0.5
	c0.7,0.3,1.3,0.7,1.7,1.3c0.5,0.5,0.9,1.1,1.1,1.9c0.3,0.7,0.4,1.4,0.4,2.2c0,0.8-0.1,1.5-0.4,2.3c-0.3,0.7-0.6,1.3-1.1,1.8
	c-0.5,0.5-1.1,0.9-1.7,1.2c-0.7,0.3-1.4,0.4-2.2,0.4c-0.8,0-1.5-0.2-2.2-0.5c-0.7-0.3-1.3-0.7-1.8-1.3c-0.5-0.5-0.9-1.1-1.1-1.8
	c-0.3-0.7-0.4-1.5-0.4-2.3c0-0.8,0.1-1.5,0.4-2.2c0.3-0.7,0.7-1.3,1.1-1.8c0.5-0.5,1-0.9,1.7-1.2C298.8,177,299.5,176.8,300.4,176.8
	L300.4,176.8z"/>
<path d="M313,174.5v9.3c0,1.2,0.2,2.2,0.5,3.1c0.3,0.9,0.8,1.6,1.4,2.2c0.6,0.6,1.3,1.1,2.2,1.4
	c0.9,0.3,1.8,0.4,2.9,0.4c1.1,0,2-0.2,2.9-0.4c0.9-0.3,1.6-0.8,2.2-1.4c0.6-0.6,1.1-1.4,1.4-2.3c0.3-0.9,0.5-2,0.5-3.2v-9.2H324v9.3
	c0,1.5-0.4,2.6-1.1,3.4c-0.7,0.8-1.7,1.1-3,1.1c-1.3,0-2.3-0.4-3-1.2c-0.7-0.8-1.1-1.9-1.1-3.5v-9.2L313,174.5z"/>
<path d="M331.5,174.5v16.2h2.9v-5.2h3.2c0.9,0,1.7-0.1,2.5-0.3c0.8-0.2,1.5-0.6,2.1-1.1c0.6-0.5,1.1-1,1.4-1.7
	c0.3-0.7,0.5-1.5,0.5-2.4c0-0.8-0.1-1.6-0.4-2.3c-0.3-0.7-0.7-1.2-1.2-1.7c-0.5-0.5-1.2-0.8-1.9-1.1c-0.8-0.3-1.6-0.4-2.6-0.4
	L331.5,174.5z M334.3,177.1h3.3c1.1,0,1.9,0.2,2.6,0.7c0.6,0.5,1,1.2,1,2.2c0,0.9-0.3,1.6-1,2.1c-0.6,0.5-1.5,0.8-2.6,0.8h-3.3
	V177.1z"/>
<path d="M348,187.5v3.2h1.2c0.1,1.2-0.6,1.9-2,2.2l0.3,1.2c1.2-0.1,2.1-0.4,2.7-1c0.6-0.6,0.9-1.5,0.9-2.8v-2.7
	L348,187.5z"/>
<path d="M364.5,174.5v16.2h2.9v-16.2H364.5z"/>
<path d="M372.3,174.5v16.2h2.8v-11.6l9,11.6h2.4v-16.2h-2.8v11.2l-8.7-11.2H372.3z"/>
<path d="M400.3,174.2c-1.2,0-2.4,0.2-3.4,0.7c-1,0.4-1.9,1-2.6,1.8c-0.7,0.8-1.3,1.6-1.7,2.7c-0.4,1-0.6,2.1-0.6,3.3
	c0,1.2,0.2,2.3,0.6,3.3c0.4,1,1,1.9,1.7,2.7c0.7,0.7,1.6,1.3,2.6,1.8c1,0.4,2.1,0.6,3.3,0.6c0.8,0,1.4-0.1,2.1-0.2
	c0.6-0.1,1.2-0.3,1.7-0.6c0.5-0.3,1-0.6,1.5-0.9c0.5-0.4,0.9-0.8,1.3-1.2l-1.8-1.9c-0.7,0.6-1.4,1.2-2.1,1.6
	c-0.7,0.4-1.6,0.6-2.6,0.6c-0.8,0-1.5-0.1-2.2-0.4c-0.6-0.3-1.2-0.7-1.7-1.3c-0.5-0.5-0.9-1.1-1.1-1.8c-0.3-0.7-0.4-1.5-0.4-2.3
	c0-0.8,0.1-1.6,0.4-2.3c0.3-0.7,0.6-1.3,1.1-1.8c0.5-0.5,1-0.9,1.7-1.2c0.7-0.3,1.4-0.5,2.2-0.5c0.9,0,1.8,0.2,2.5,0.6
	c0.7,0.4,1.4,0.9,2.1,1.5l1.8-2.1c-0.4-0.4-0.8-0.7-1.2-1c-0.4-0.3-0.9-0.6-1.4-0.8c-0.5-0.2-1.1-0.4-1.7-0.5
	C401.7,174.3,401,174.2,400.3,174.2L400.3,174.2z"/>
<path d="M409.6,186.8v3.9h3.8v-3.9H409.6z"/>
</svg>
