<svg id="Group_82" data-name="Group 82" xmlns="http://www.w3.org/2000/svg" width="147.708" height="146.918" viewBox="0 0 147.708 146.918">
  <g id="Group_81" data-name="Group 81" transform="translate(0)">
    <path id="Path_3342" data-name="Path 3342" d="M370.793,293.556H223.086V440.474H370.793Zm-32.442,17.723h6.19v32.286h-5.979c-.161-2.084-.308-4-.47-6.095l-6.077-.437-.934-6.119c2.266-.167,4.554-.347,7.268-.56Zm-6.611,12.959q-.379,3.291-.758,6.589l-5.975-.21v-6.379Zm-19.4-12.916h6.25v19.053l6.339.319v6.335l-5.949.392c-.149,1.948-.295,3.844-.464,6.061h-6.175Zm-59.374,71.334h-6v-6.2h6Zm.118-39.081h-6.178v-6.219h6.178Zm39.161,12.569h-13v26.523h-6.453V356.52h-13.05v-6.553H292.25Zm.168-12.643h-6.543V331.067h-19.4v12.451l-6.595.3V311.4h32.54Zm6.845-6.182h6.4v6.207h-6.4Zm6.286,83.967h-6.212v-5.992h6.212Zm.13-38.64h-6.392v-6.109h6.392Zm38.981,38.735H312.352v-6.114H338v-6.3H325.254V402.06h12.834v-6.516H312.383v-6.421h32.278Zm.066-51.924H318.976v6.688h25.639V382.6H312.334V363.208h25.673V356.3H312.333v-6.4h32.394Z" transform="translate(-223.086 -293.556)" fill="#fff"/>
    <path id="Path_3343" data-name="Path 3343" d="M297.146,324.74H278.093v5.784h19.053Z" transform="translate(-234.644 -300.108)" fill="#fff"/>
  </g>
</svg>
