<svg xmlns="http://www.w3.org/2000/svg" viewBox="0 0 168 86">
    <path class="st1"
          d="M10.8 27.3c2 3.1 4.3 4.5 8 4.5 3.9 0 6.9-2.3 6.9-6.4 0-9-16.5-4.1-16.5-15.3-.1-5.8 4.5-9.1 10-9.1 3.2 0 6.4 1.5 8.5 3.9L25.9 7c-2-1.8-3.9-3.1-6.7-3.1-3.8 0-6.9 1.9-6.9 6 0 8 16.5 3.8 16.5 15.2 0 5.9-4.4 9.6-10.1 9.6-4.4 0-7.9-1.8-10.2-5.6l2.3-1.8zM33.9 34.4V1.8l2.9-.8v15.2h18.5V1.8l3-.8v33l-2.9.4V19.1H36.8V34l-2.9.4zM70.7 21.3l-6.5 13.4L61 34 77.4 1h.1l16.4 33-2.8.7-6.6-13.3H70.7zm6.8-13.7-5.4 10.8h10.8L77.5 7.6zM89.6 1.8l3.2-.8 10.9 26.2 4.7-11.4-5.9-14.1 3-.8 4.6 10.9L114.7 1l2.7.8-5.7 14.1 4.8 11.4L127.3 1l3.3.8-14.1 33h-.1L110 19.5l-6.3 15.2h-.1l-14-32.9zM154.8 1.8l2.9-.6v33.6h-.1L136 8.8V34l-2.9.4V1h.1l21.6 25.9h.1V1.8zM29.7 40l6.6 33-2.9.4-4.6-23.9h-.1l-9.8 24.2h-.1L8.6 49.5h-.1L4.1 73.4 1.2 73l6.6-33h.1l11 26.3L29.7 40zM40.5 73V40.8h17.4l.6 2.9H43.4v11.5h12.9v2.9H43.4v12h15.9l-.5 2.9H40.5zM85.6 40.8l2.9-.6v33.6h-.1l-21.6-26h-.1V73l-2.9.4V40h.1l21.6 25.9h.1V40.8zM95 40.8h8.3c8.8 0 15.7 6.8 15.7 15.9 0 9.2-6.7 16.3-15.7 16.3H95V40.8zm3 29.3h4.7c7.7 0 13.2-5.7 13.2-13.4 0-7.4-4.7-13-12.5-13H98v26.4zM124 73V40.8h17.4l.6 2.9h-15v11.5h12.9v2.9H127v12h15.9l-.5 2.9H124zM147.9 66.3c2 3.1 4.3 4.5 8 4.5 3.9 0 6.9-2.3 6.9-6.4 0-9-16.5-4.1-16.5-15.3 0-5.9 4.6-9.1 10.1-9.1 3.2 0 6.4 1.5 8.5 3.9l-1.8 2.2c-2-1.8-3.9-3.1-6.7-3.1-3.8 0-6.9 1.9-6.9 6 0 8 16.5 3.8 16.5 15.2 0 5.9-4.4 9.6-10.1 9.6-4.4 0-7.9-1.8-10.2-5.6l2.2-1.9z"/>
</svg>
