<?xml version="1.0" encoding="utf-8"?>
<!-- Generator: Adobe Illustrator 28.0.0, SVG Export Plug-In . SVG Version: 6.00 Build 0)  -->
<svg version="1.1" id="Layer_1" xmlns="http://www.w3.org/2000/svg" xmlns:xlink="http://www.w3.org/1999/xlink" x="0px" y="0px"
	 viewBox="0 0 168 86" style="enable-background:new 0 0 168 86;" xml:space="preserve">
<path d="M10.8,27.3c2,3.1,4.3,4.5,8,4.5c3.9,0,6.9-2.3,6.9-6.4c0-9-16.5-4.1-16.5-15.3C9.1,4.3,13.7,1,19.2,1c3.2,0,6.4,1.5,8.5,3.9
	L25.9,7c-2-1.8-3.9-3.1-6.7-3.1c-3.8,0-6.9,1.9-6.9,6c0,8,16.5,3.8,16.5,15.2c0,5.9-4.4,9.6-10.1,9.6c-4.4,0-7.9-1.8-10.2-5.6
	C8.5,29.1,10.8,27.3,10.8,27.3z"/>
<polygon points="33.9,34.4 33.9,1.8 36.8,1 36.8,16.2 55.3,16.2 55.3,1.8 58.3,1 58.3,34 55.4,34.4 55.4,19.1 36.8,19.1 36.8,34 "/>
<path d="M77.5,1L77.5,1L61,34l3.2,0.7l6.5-13.4v0.1h13.8l6.6,13.3l2.8-0.7L77.5,1z M72.1,18.4l5.4-10.8l5.4,10.8H72.1z"/>
<polygon points="89.6,1.8 92.8,1 103.7,27.2 108.4,15.8 102.5,1.7 105.5,0.9 110.1,11.8 114.7,1 117.4,1.8 111.7,15.9 116.5,27.3 
	127.3,1 130.6,1.8 116.5,34.8 116.4,34.8 110,19.5 103.7,34.7 103.6,34.7 "/>
<polygon points="154.8,1.8 157.7,1.2 157.7,34.8 157.6,34.8 136,8.8 136,34 133.1,34.4 133.1,1 133.2,1 154.8,26.9 154.9,26.9 
	154.9,1.8 "/>
<polygon points="29.7,40 36.3,73 33.4,73.4 28.8,49.5 28.7,49.5 18.9,73.7 18.8,73.7 8.6,49.5 8.5,49.5 4.1,73.4 1.2,73 7.8,40 
	7.9,40 18.9,66.3 "/>
<polygon points="40.5,73 40.5,40.8 57.9,40.8 58.5,43.7 43.4,43.7 43.4,55.2 56.3,55.2 56.3,58.1 43.4,58.1 43.4,70.1 59.3,70.1 
	58.8,73 "/>
<polygon points="85.6,40.8 88.5,40.2 88.5,73.8 88.4,73.8 66.8,47.8 66.7,47.8 66.7,73 63.8,73.4 63.8,40 63.9,40 85.5,65.9 
	85.6,65.9 "/>
<path d="M103.3,40.8H95V73h8.3c9,0,15.7-7.1,15.7-16.3C119,47.6,112.1,40.8,103.3,40.8z M102.7,70.1H98V43.7h5.4
	c7.8,0,12.5,5.6,12.5,13C115.9,64.4,110.4,70.1,102.7,70.1z"/>
<polygon points="124,73 124,40.8 141.4,40.8 142,43.7 127,43.7 127,55.2 139.9,55.2 139.9,58.1 127,58.1 127,70.1 142.9,70.1 
	142.4,73 "/>
<path d="M147.9,66.3c2,3.1,4.3,4.5,8,4.5c3.9,0,6.9-2.3,6.9-6.4c0-9-16.5-4.1-16.5-15.3c0-5.9,4.6-9.1,10.1-9.1
	c3.2,0,6.4,1.5,8.5,3.9l-1.8,2.2c-2-1.8-3.9-3.1-6.7-3.1c-3.8,0-6.9,1.9-6.9,6c0,8,16.5,3.8,16.5,15.2c0,5.9-4.4,9.6-10.1,9.6
	c-4.4,0-7.9-1.8-10.2-5.6L147.9,66.3z"/>
</svg>
