<?xml version="1.0" encoding="UTF-8"?><svg id="Layer_1" xmlns="http://www.w3.org/2000/svg" viewBox="0 0 612 139.66"><defs><style>.cls-1{fill:#fff;stroke-width:0px;}</style></defs><path class="cls-1" d="m137.86.21H26.74v26.57h84.38v83.86h26.74V.21h0Z"/><path class="cls-1" d="m26.74,26.78H0v110.44h111.12v-26.57H26.74V26.78Zm585.26,110.25h-25.05V0h25.05v137.03Zm-280.88-29.04c-4.08,5.91-10.8,10.65-21.77,10.74-18.47.16-27.48-12.72-29.24-26.92h76.7v-6.33c0-31.91-16.24-54.84-49.65-54.84-29.24,0-51.44,21.41-51.44,53.52s21.09,55.49,52.12,55.49c28.98,0,41.54-14.56,46.91-31.67h-23.63Zm-23.96-57.48c14.08,0,23.96,9.18,24.62,22.72h-51.01c.68-12.45,12.09-22.72,26.39-22.72h0Zm233.68,57.48c-4.08,5.91-10.83,10.65-21.79,10.74-18.45.16-27.47-12.72-29.22-26.92h76.71v-6.33c0-31.91-16.23-54.84-49.65-54.84-29.24,0-51.44,21.41-51.44,53.52s21.11,55.49,52.12,55.49c28.99,0,41.55-14.56,46.99-31.67h-23.71Zm-23.98-57.48c14.08,0,23.96,9.18,24.62,22.72h-50.99c.66-12.45,12.09-22.72,26.37-22.72Zm-80.66-17.25l-24.16,69.02-.73,2.99-.76-3.09-23.93-68.91h-25.87l38.94,104.15h23.43l38.95-104.15h-25.87Zm-200.6,103.77h-25.07V0h25.07v137.03h0Z"/></svg>
