<svg xmlns="http://www.w3.org/2000/svg" viewBox="0 0 100 24">
    <path d="M94.945675,22.4749904 L99,22.4749904 L99,-0.00016626506 L94.945675,-0.00016626506 L94.945675,22.4749904 Z M57.3947,17.7106651 C56.5158,20.5169422 54.482725,22.9050627 49.7937,22.9050627 C44.77935,22.9050627 41.3655,19.3214964 41.3655,13.8028819 C41.3655,8.5350506 44.957275,5.02297831 49.687,5.02297831 C55.092675,5.02297831 57.71975,8.78583373 57.71975,14.0179181 C57.71975,14.3044482 57.720575,14.7705446 57.720575,15.0570747 L45.31285,15.0570747 C45.597475,17.3864482 47.054975,19.4977373 50.042025,19.4736289 C51.815225,19.4592193 52.9034,18.6808217 53.564775,17.7106651 L57.3947,17.7106651 Z M45.41955,12.0110988 L53.6701,12.0110988 C53.5634,9.78924337 51.963175,8.28399036 49.687,8.28399036 C47.375625,8.28399036 45.52625,9.96825542 45.41955,12.0110988 L45.41955,12.0110988 Z M87.487675,17.7106651 C86.8263,18.6808217 85.738125,19.4592193 83.964925,19.4736289 C80.977875,19.4977373 79.520375,17.3864482 79.23575,15.0570747 L91.643475,15.0570747 C91.643475,14.7705446 91.642375,14.3044482 91.642375,14.0179181 C91.642375,8.78583373 89.015575,5.02297831 83.6099,5.02297831 C78.8799,5.02297831 75.2884,8.5350506 75.2884,13.8028819 C75.2884,19.3214964 78.70225,22.9050627 83.7166,22.9050627 C88.405625,22.9050627 90.4387,20.5169422 91.317325,17.7106651 L87.487675,17.7106651 Z M83.6099,8.28399036 C85.8858,8.28399036 87.4863,9.78924337 87.593,12.0110988 L79.34245,12.0110988 C79.44915,9.96825542 81.298525,8.28399036 83.6099,8.28399036 L83.6099,8.28399036 Z M22.301675,18.1462795 L17.975925,18.1462795 L17.975925,4.39144819 L4.32575,4.39144819 L4.32575,0.0325325301 L22.301675,0.0325325301 L22.301675,18.1462795 Z M4.32575,4.39144819 L0,4.39144819 L0,22.5051952 L17.975925,22.5051952 L17.975925,18.1462795 L4.32575,18.1462795 L4.32575,4.39144819 Z M74.74445,5.45526747 L68.44585,22.537894 L64.653325,22.537894 L58.35445,5.45526747 L62.539125,5.45526747 L66.40975,16.7557494 L66.53295,17.2642434 L66.650925,16.775147 L70.5606,5.45526747 L74.74445,5.45526747 Z M38.1117,22.4749904 L34.05765,22.4749904 L34.05765,0.000110843373 L38.1117,0.000110843373 L38.1117,22.4749904 Z"></path>
</svg>
