<svg xmlns="http://www.w3.org/2000/svg" viewBox="0 0 125.449 157.162">
  <path d="M240.119,435.317a12.55,12.55,0,0,0,4.3-.987l3.749.627,4.025-1.076,7.41,1.615-7.959.179c-5.1,1.119-6.425,1.418-11.525-.359" transform="translate(-231.429 -311.737)" />
  <path d="M356.242,434.932l4.938-.584,1.6.718,3.885-.537a24.1,24.1,0,0,1,3.248-1.75c.72.31,2.845,1.242,3.568,1.436l3.2.359-7.134,1.435-5.077-.089c-.982-.111-3.637-.5-4.527.089l-3.7-1.076" transform="translate(-262.531 -311.441)" />
  <path d="M269.689,427.171h-2.946v-1.7h8.836v1.7h-2.946v14.7h-2.944v-14.7" transform="translate(-238.56 -309.484)" />
  <path d="M293.619,427.139h-5.89v5.652h4.418v1.7h-4.418v5.652h5.89v1.7c-1.825-.291-8.623.993-8.836-1.7.859-13.995-3.849-15.2,8.836-14.7v1.7" transform="translate(-243.345 -309.452)" />
  <path d="M305.485,433.673l-3.3-8.2h2.985c.268.808,1.7,4.506,1.792,5.283h.078c.089-.754,1.531-4.5,1.792-5.283h2.984l-3.3,8.2,3.3,8.2h-2.984c-.27-.808-1.7-4.506-1.792-5.283h-.078c-.086.755-1.532,4.5-1.792,5.283h-2.985l3.3-8.2" transform="translate(-248.051 -309.484)" />
  <path d="M322.394,427.861c-.1-3.293,8.938-3.3,8.839,0v13.991h-2.946V434.5H325.34v7.352h-2.946Zm2.946,4.941h2.947V427.15H325.34Z" transform="translate(-253.465 -309.462)" />
  <path d="M341.687,437.54h2.945v2.573h2.945v-5.652c-6.859.376-5.917-.983-5.89-6.64.8-3.993,10.349-3.326,8.837,1.862h-2.947V427.11h-2.945v5.652c6.86-.375,5.92.98,5.892,6.639-.8,3.994-10.349,3.327-8.837-1.861" transform="translate(-258.589 -309.423)" />
  <path d="M239.706,446.63h3.906v22.859h3.907V464.2h3.906v7.929H239.706v-25.5" transform="translate(-231.318 -315.151)" />
  <path d="M262.511,455.192c-.119-4.323,11.036-4.331,10.916,0v15.2c0,1.838-2.457,3.346-5.458,3.346s-5.458-1.508-5.458-3.346Zm3.64,16.133h3.639V454.258H266.15Z" transform="translate(-237.426 -316.575)" />
  <path d="M286.56,454.287h-3.639v-2.231h10.916v2.231H290.2v19.3H286.56v-19.3" transform="translate(-242.893 -316.604)" />
  <path d="M307.111,454.287h-3.638v-2.231h10.917v2.231H310.75v19.3h-3.639v-19.3" transform="translate(-248.397 -316.604)" />
  <path d="M335.477,454.259H328.2v7.418h5.46v2.232H328.2v7.418h7.279v2.232c-2.315-.365-10.7,1.271-10.917-2.232V454.259c.207-3.487,8.62-1.887,10.917-2.231v2.231" transform="translate(-254.045 -316.577)" />
  <path d="M346.644,452.029c2.318.351,10.7-1.261,10.919,2.23v6.816c0,1.025-.738,1.417-1.623,1.718,3.679.73-.038,8.924,2.508,10.766H354.71c-1.438-.833-.563-8.339-.786-9.65h-3.641v9.65h-3.638Zm3.638,9.648h3.641V454.26h-3.641Z" transform="translate(-259.96 -316.577)" />
  <path d="M373.024,460.737c-2.022-.533-3.846-1.731-3.905-3.749V446.63h3.905V458.1h3.907V446.63h3.905v10.358c-.061,2.019-1.883,3.215-3.905,3.749v11.4h-3.907v-11.4" transform="translate(-265.979 -315.151)" />
  <path d="M314.357,418.275l.092-.112a29.418,29.418,0,0,1,5.58-.045,38.347,38.347,0,0,0,7,.617,6.493,6.493,0,0,1-2.561.291,6.724,6.724,0,0,0-1.749.4c-7.019-1.365-4.843-.835-8.358-1.155" transform="translate(-251.312 -307.484)" />
  <path d="M360.292,421.9a21.662,21.662,0,0,1,3.213-1.851,5,5,0,0,0-.711-.887c-2.128-.078-4.218.106-4.276.068a10.139,10.139,0,0,1,1.773,2.67" transform="translate(-263.14 -307.789)" />
  <path d="M333.828,271.676l.081-.011a9.23,9.23,0,0,1,.629-4.566l-.045-.045a35.552,35.552,0,0,1-4.642,2.153c.807.221,1.59,1.3,3.269,1.862Z" transform="translate(-255.462 -267.055)" />
  <path d="M353.7,282.487a24.077,24.077,0,0,1-2.024-3.085c-2.947,1.887-3.3,1.252-6.585,4.824A7.3,7.3,0,0,1,346.3,286l-.035.067a17.34,17.34,0,0,0-2.068.338,74.423,74.423,0,0,1,1.68-13.2c-1.071.63-9.29,0-10.611,0-15.921,2.934-8.567,1.469-18.935,1.706l-1.737-1.527a67.659,67.659,0,0,1-19.758.45l-1.007-1.257-4.9.947a5.579,5.579,0,0,1,.5,4.562l-.057.28a23.229,23.229,0,0,1,4.78,3.5,11.2,11.2,0,0,0-2.378,2.311l-.115-.067-1.1-2.244a10.152,10.152,0,0,1-1.349-1.48h-.069a13.745,13.745,0,0,1-.936,3.993c-2.022-1.344-5.415-3.293-7.5-4.577a33.528,33.528,0,0,1,3.339-3.366,10.475,10.475,0,0,1,2.766.83h.207c.135-1-1.293-3.157-1.349-3.108l1.888-.37h0l1.371-.269c-.059-.6-3.736-4.389-4.584-5.565a32.3,32.3,0,0,1-3.408,3.276,14.14,14.14,0,0,1-4.23-3.681,27.018,27.018,0,0,0-3.109,2.222,12.957,12.957,0,0,1,6.15,4.15,6.923,6.923,0,0,1,2.185-1.614s-.024-.315,1.44-1.313c.215.043.258-.075.56.594.4.234.618.505,1.736,2.565l-.2.039-2.561-.09-3.979,1.436-5.306-1.7c-8.913,3.662-9.952,2.19-17.013-.718l-5.214,1.525-4.116-.807-1.647.9a55.248,55.248,0,0,0-10.976-2.155c1.18.956,2.287,16.138,2.561,17.77l-2.652,7.54,3.384,7.29-.681,4.674a18.12,18.12,0,0,1-.874-2.453,38.77,38.77,0,0,1-2.607,3.591c-.647-1.746-1.374-4.406-2.241-7a9.477,9.477,0,0,1-3.293,2.334c.665.887,1.458,5.282,4.757,7.448l2.081-1.256.138.067a25.74,25.74,0,0,0,1.257,2.625s.292-2.046.786-5.22a24.046,24.046,0,0,0,3.605,7.555,21.047,21.047,0,0,1,3.384-2.782,18.035,18.035,0,0,0,6.129,5.116,13.44,13.44,0,0,1,.274-4.039l5.122.179,5.763,3.231-2.287,3.41c-4.025.359-5.671-.448-5.671-.448l.092,3.141a39.21,39.21,0,0,1,9.969,2.692c-.435.787-1.6,2.589-2.727,4.5a13.532,13.532,0,0,0-1.571,3.307l3.842-.359a6.885,6.885,0,0,0,3.068,2.921,6.413,6.413,0,0,0-2.063,2.644c-4.356-4.866-2.86-3.211-6.584-3.411l.182-2.692,2.561-4.756-8.141-4.217a14.492,14.492,0,0,1-1.464-4.129,19.119,19.119,0,0,1-8.14-4.039c-.262.245-3.044,2.238-3.019,2.6a29.409,29.409,0,0,1-3.107-5.2l-1.191,8.183,1.92,4.017a27.92,27.92,0,0,0-1.006,7.448l-2.287,6.642,2.1,2.692-1.372,5.294c2.3,7.488,3.011,10.5.915,16.334l1.554,1.975-1.92,11.937,3.476-1.885,6.037,1.615,4.848-1.525c2.985-.208,18.938-2,19.483.808l3.019-3.5,1.554-4.307-.639-1.8-2.287-2.423a5.12,5.12,0,0,0-.777-2.827c-1.51-4.756-1.418-3.814-1.418-3.814a8.088,8.088,0,0,0-3.567-2.693l.686-1.661,5.259-.133c2.653,2.692,3.017,4.665,3.017,4.665,3.02,1.526,2.653,2.065,2.653,2.065l3.659,1.346,3.019,4.756-1.921-5.026-6.952-3.679c-.183-1.8,0-2.065,0-2.065a3.867,3.867,0,0,1-.458-1.907c-.731-6.821-.182-5.632-.182-5.632l.731-3.859c1.647-4.127,2.013-3.5,2.013-3.5a5.04,5.04,0,0,1,1.462.359c1.281,5.3-.458,6.462-.458,6.462l.732,1.256.092,2.693.731,1.795-.731,1.078c1.281-.719,1.555-.27,1.555-.27l.457-6.013a18.206,18.206,0,0,0,1.007-3.23,43.588,43.588,0,0,0,3.2-4.756l1.921.358-.092,3.86c-.2.751-1.2,3.29-.731,4.038l-.824,3.052.183,1.794-1.234,1.212,1.372.313a22.239,22.239,0,0,0,2.607-3.768l1.28-.808L291,353.432l.275,1.166a7.019,7.019,0,0,0-.549,3.141,7.772,7.772,0,0,0-2.287,3.051l-1.737-.358c-1-1.374.512-5.01.366-4.758h-.275a3.607,3.607,0,0,1-.732,1.526l-.64,3.59a8.429,8.429,0,0,1,2.377,1.436l2.2-1.526.824-2.063a3.453,3.453,0,0,0,1.461.9c.245,1.174.546,3.642.642,4.846a11.61,11.61,0,0,0-2.288,2.6,2.673,2.673,0,0,0-1.463-.628l.275-2.423a2.318,2.318,0,0,0,.458-1.436,4.512,4.512,0,0,1-1.373.718,12.061,12.061,0,0,1-.366,4.308l1.1.448-.091,2.514a18.625,18.625,0,0,0-3.063,4.622l-2.058,1.3-2.013-.448a4.834,4.834,0,0,0,1.373,1.795l-.915,1.077,3.567.359,3.934-.63a46.509,46.509,0,0,1,8.6,1.975,53.54,53.54,0,0,1,12.716-2.064l.914.986c4.583-.412,8.3-.679,11.439-.822a25.709,25.709,0,0,0-5.127-3.4l3.7-3.68,4.116-2.064a13.778,13.778,0,0,0-2.88-2.738l-.048-.224c.29.016,2.681-3.459,2.882-3.68a28.193,28.193,0,0,1,.549-3.23c-.11.122-4.755,1.689-5.031,1.795l-4.207.449c.1-1.129,1.662-6,1.783-6.462,2.645-3.107,2.106-3.036,4.345-4.845,2.552,2.383,4.32,3.335,4.161,6.55l.116.157c.277-.194,3.518-2.478,3.681-2.581v-.133a47.75,47.75,0,0,1-3.431-5.654c2.234-.5,4.9-3.387,4.9-3.9a10.288,10.288,0,0,0,2.926,2.557,15.438,15.438,0,0,1-4.483,2.065c-.073.63.245,1.682.185,2.333l.5.808c1.882,1.739,1.05,1.339,1.967,2.2-1.788,1.227-4.121,3.181-6.129,4.04.354,5.4-.921,6.467-2.1,8.211a37.533,37.533,0,0,1,3.473,2.782c-.548.351-2.164,1.64-2.7,2.065A24.707,24.707,0,0,0,322.6,375.2c3.845,1.658,3.987,2.034,5.258,3.317a67.058,67.058,0,0,1,16.191,1.753l-1.739-6.821,1.829-3.5-1.554-6.82,1.28-3.948-.548-11.668,1.464-6.371c-3.737-8.8-.479-13.807.548-21.27l-.824-4.4,1.1-8.078-1.1-5.116a115.748,115.748,0,0,1-.422-12.885l-2.2.647-1.12.865a8.211,8.211,0,0,1,1.84,2.322,20.867,20.867,0,0,1-3.27,8.784,23.862,23.862,0,0,0-3.567-1.885c4.709-6.193,4.575-7.359,4.575-7.359l-1.215-1.639-2.128-1.368c4.174-2.394,3.618-1.855,5.272-2.838l1.029-.247a2.572,2.572,0,0,1,.88-.235c-.1,1.491-.1,2.325-.1,2.7.006-.234.016-.453.023-.682-.007.3-.014.613-.018.966a19.8,19.8,0,0,1,6.563-.269c-.484-.794-2.446-4.118-3-4.78C347.663,284.372,349.355,283.07,353.7,282.487ZM241.9,375.9l-1.212-.235c-2.028.843-1.768.469-2.677.986l-.159-.089a18.638,18.638,0,0,0,1.395-4.689l.091-.022a11.464,11.464,0,0,1-.138,3.41l.047.089,1.578-.381,1.167.876Zm8.41-30.47c-2.379-1.15-3.409-1.568-4.2-1.491l-.115-.089a29.611,29.611,0,0,0,3.384-2.355l.137.045c.209.984.679,3.569.8,3.891l.027.012C250.337,345.482,250.327,345.471,250.312,345.431Zm2.657-10.421a43.633,43.633,0,0,0-.571,5.947,4.073,4.073,0,0,0-.434,1.614l-.114-.09c-.233-2.336.248-2.957-.092-4.621.423-1.708.791-5.367,1.783-6.664l.185-.022A7.749,7.749,0,0,0,252.969,335.01Zm13.4,29.64a14.152,14.152,0,0,1,.713,2.606l-.119.03a6.512,6.512,0,0,0-.868-1.515l-.091-.695c-1.472-1.241-1.532-1.212-1.761-1.93l.16-.045A12.211,12.211,0,0,1,266.37,364.651Zm64.8-83.24c1.716,1.324,3.361,2.468,3.361,2.468a16.833,16.833,0,0,0-3.52,1.01A12.732,12.732,0,0,1,331.175,281.411Zm-65.514-1.077c.933.321,2.678.493,3.613.808,1.22-2.053,1.122-1.428,1.829-2.827l.114.067c.406,1.92.392,3.146.48,3.344.305-.061,2.562,1.713,2.835,1.885.092.134-.092.2-.092.2-.96.449-2.674,1.1-2.674,1.1.092,1.616.022,3,.022,3a31.787,31.787,0,0,1-2.561-2.467,13.753,13.753,0,0,0-3.155.627c2.317-3.292,1.259-2.6-.435-5.608ZM242.909,304c-.029-.121-.075-.483-.138-.908-1.24-2.347-1.715-2.659-1.715-2.659l1.1-2.334c.08-.481.262-1.456.365-1.93l.137-.09c-.092,1.2-.291,5.267-.411,5.072.232.119.409,1.144.526,1.941.1.179.193.368.3.572Zm-.572-12.407c-.239-.567-.728-1.774-.987-2.533l-.5-.138.39-.2c.028.1.067.213.11.34l3.571.983A3.787,3.787,0,0,0,242.337,291.6ZM254.8,275.711a13.593,13.593,0,0,1-2.926.606c-2.831.547-3.749.146-6.151-.269a21.535,21.535,0,0,1-6.929-.763l-.114.045a5.467,5.467,0,0,0,.045,1.527,9.985,9.985,0,0,0-.031,3.088l.124.03s-.067.1-.124-.03l-.06-.015c-.547-.546-.45-3.026-.366-2.826l-.411-2.29.137-.179a4.508,4.508,0,0,0,1.829.225c2.19.208,1.469.589,2.333.493l2.2.449a3.361,3.361,0,0,0,2.035-.023l1.51.247a12.588,12.588,0,0,0,4.161-.449,13.555,13.555,0,0,0,2.905-.7c1.032.411,2.293.727,3.338,1.122C257.22,275.981,255.89,275.681,254.8,275.711Zm16.007,77.721a15.378,15.378,0,0,0-4.5-.615c.485-.158,2.775-.416,3.265-.485C271.929,352.9,270.939,353.339,270.806,353.432Zm3.774-20.6c1.921-.54,5.854-1.212,5.854-1.212,5.246,1.172,5.214,1.481,5.214,1.481-1.139-.085-4.313-.513-5.488-.673A46.677,46.677,0,0,0,274.579,332.835Zm2.149,2.244-.045-.135c5.125-1.475,9.059-.53,11.753,1.415C285.762,334.838,278.551,334.887,276.728,335.079Zm18.89,20.1c.072-.659.15-1.262.2-1.822l-.2-1.206-.636-.6-.737-2.607a4.5,4.5,0,0,1,1.571,4.415l.258,1.576Zm-2.813-23.525c3.751-1.412,4.32-2.244,4.32-2.244a22.083,22.083,0,0,0,.849,4.14C294.772,332.341,292.805,331.657,292.805,331.657Zm7.523,20.069c-.136-.573-.434-1.752-.595-2.311a12.7,12.7,0,0,0,1.739,2.6Zm7.89-2.827-.07.225a14.539,14.539,0,0,0-3.315,3.186l-.138.023c-.086-1.062.31-5.07.182-5.5a10.313,10.313,0,0,0,3.728,1.816Zm-3.91-8.525.227-.045a18.857,18.857,0,0,0,5.854,1.458l.366.157C309.111,343.156,304.3,340.3,304.308,340.374Zm5.714-2.2a11.4,11.4,0,0,1-3.589-1.526l-.045-.134c1.07.2,5.8,1.82,6.129,1.548,2.4,1.209,4.827,1.07,7.25,1.458C315.8,340.43,310.062,338.356,310.022,338.175Zm17.747-3.949c-3.435,1.446-9.941,1.722-16.191.179-5.137-2.648-15.538-8.364-20.4-11.4l-13.629-2.6a16.072,16.072,0,0,1-3.11.539l-1.371-.539-.182-3.052s-4.274-8.353-6.861-10.411c0,0-3.109-2.6-6.951-9.6l-1.006-6.462,1.189-5.3c2.577-.4,2.748-.09,6.174.9,1.732,1.608,5.135,4.96,6.722,6.687,1.62,1.8,3.014,3.581,5.534,4.936l-2.926,2.334.367,2.063,4.526,5.7,3.659,2.737,5.076,4.444,7,3.814,1.83-.539c-6.814-3.03-5.366-3.412-15.687-10.815l-4.893-5.3v-1.974c.536-.135,1.453-1.73,1.737-2.155l4.94-4.307c5.371-6.164,3.559-4.227,12.852-9.423a46.18,46.18,0,0,0,7.819.718l2.15,3.679-2.035.225a3.006,3.006,0,0,0-.961-1.032l-.067.09a5.305,5.305,0,0,1,.639,1.705l3.569,1.166,4.025-1.076c8.817,4.821,2.44,16.333-1.19,25.577-.488.886-2.541,4.228-2.469,5.34-.314-.285-7.54-.2-10.064-1.121l-6.951-.269-3.292-.988s-1.875.9-11.3-1.256a11.037,11.037,0,0,0-3.064-2.873,14.434,14.434,0,0,1,1.829,4.667l1.921-.538c7.316,1.508,18.686,2.873,38.051,4.757.315-.3,12.807,5.569,14.818,9.513Zm8.507,32.8-.185.091a11.365,11.365,0,0,1-.366,1.66,2.935,2.935,0,0,1-.365,1.212c-1.061-1.729-1.419-1.879-1.784-2.962a12.256,12.256,0,0,0-2.9.045l-.048-.067a19.629,19.629,0,0,1,2.208-2.288,20.825,20.825,0,0,1-1.109-2.648,22.472,22.472,0,0,0,3.132,1.5c.607-.606,2.155-1.987,2.313-2.213l0-.031c.025-.01.022,0,0,.031a13.575,13.575,0,0,1-.026,3.694,17.747,17.747,0,0,1,1.463,2.625C338.462,367.635,336.312,367.114,336.276,367.027Zm5.806-45.141a9.06,9.06,0,0,1-1.1,5.07c-.739-.742-4.073-3.118-4.073-3.118A21.135,21.135,0,0,0,342.082,321.886Zm-4.457-11.241-1.281,2.692,1.442,2.244c-.891.045-2.859-.045-2.859-.045-.526,1.257-1.029,2.716-1.029,2.716-1.618-3.423-3.951-3.5-5.578-3.5a33.5,33.5,0,0,1,3.932-2.109,22.742,22.742,0,0,1-.846-2.535l2.653,1.817C336.023,311.117,337.625,310.645,337.625,310.645Zm4.756-31.411a14.5,14.5,0,0,0-.389,1.817l-.159.135a35.473,35.473,0,0,1,.342-5.475c-.74-.166-3.384-.8-4.093-.852l-.024-.113c1.581-.032,4.806.32,4.915.246l.14.136A23.193,23.193,0,0,0,342.381,279.234Z" transform="translate(-228.25 -267.186)" />
  <path d="M303.771,283.954a4.432,4.432,0,0,0,.137-1.571l.091-.045a9.846,9.846,0,0,0,2.035-.022,5.476,5.476,0,0,0,1.235.584l.045.135a8.7,8.7,0,0,0-.16,2.154l-.115.067c-1.469-.8-2.348-1.368-3.2-1.188l-.068-.112" transform="translate(-248.477 -271.142)" />
  <path d="M329.691,329.41A17.733,17.733,0,0,0,326.1,328.2a9.263,9.263,0,0,1,2.536-.314,12.914,12.914,0,0,0-2.285-2.625,27.535,27.535,0,0,0,3.771.538,14.387,14.387,0,0,0-2.993-2.895c2.171.36,4.228.471,4.228.471a34.522,34.522,0,0,0-2.561-2.939,22.932,22.932,0,0,0,4.141.628l-2.38-2.557a17.159,17.159,0,0,0,3.956,0,17.158,17.158,0,0,0-3.132-2.85l4.39.023a22.948,22.948,0,0,0-3.383-3.477,16.754,16.754,0,0,0,4.55-.023c-1.853-2.826-2.951-2.962-2.951-2.962a11.563,11.563,0,0,1,3.34.381,6.48,6.48,0,0,0-1.989-2.984,10,10,0,0,1,2.834.831,20.032,20.032,0,0,0-1.9-3.1,8.707,8.707,0,0,1,3.017,2.265,42.105,42.105,0,0,1-4.985,15.212l-2.516,4.936a18.072,18.072,0,0,0-2.1,2.648" transform="translate(-254.458 -277.044)" />
  <path d="M330.879,349.433a47.442,47.442,0,0,1,8.827,5.116l7.821.313a19.087,19.087,0,0,1,5.031-.852,18.464,18.464,0,0,1-4.024-3.724l.411,2.872a22.151,22.151,0,0,0-3.705-3.052,8.515,8.515,0,0,1,.915,3.186,21.342,21.342,0,0,1-4.482-3.59,11.1,11.1,0,0,0,1.053,3.455c-3.155-2.782-3.477-4.039-3.477-4.039a24.913,24.913,0,0,0,.183,4.083l-3.7-3.859.413,1.84a33.628,33.628,0,0,0-5.261-1.751" transform="translate(-255.738 -289.034)" />
  <path d="M287.75,328.887c.009-1.609-3.038-4.769-3.157-4.712,2.43,3.3,1.871,3.356,3.157,4.712" transform="translate(-243.341 -282.353)" />
</svg>
