<svg xmlns="http://www.w3.org/2000/svg" viewBox="0 0 754 370.527"><g transform="translate(377 185.263)"><g transform="translate(-377 -185.263)"><g transform="translate(0.118 342.165)"><path d="M19.465,366.063H5.956l-3.414,8.381H.12l11.36-27.528h2.541l11.322,27.528H22.919ZM12.671,349.38l-6,14.658H18.788l-6-14.658Z" transform="translate(-0.12 -346.559)"/><path d="M29.52,374.446V347.039H31.9l17.636,23.794V347.039H51.8v27.407H49.341L31.783,350.733v23.714Z" transform="translate(-0.492 -346.56)" /><path d="M86.109,360.98H72.285v11.4H88.77v2.067H70.022V347.039H88.77V349.1H72.285v9.813H86.109Z" transform="translate(-1.005 -346.56)" /><path d="M115.445,374.446h-2.782l-9.414-12.314-9.375,12.314H91.055l10.684-14.023L91.491,347.039h2.9l8.938,11.877,8.818-11.877h2.858L104.72,360.583Z" transform="translate(-1.272 -346.56)" /><path d="M119.654,374.446V347.039h10.207c5.68,0,8.938,3.457,8.938,8.857a8.816,8.816,0,0,1-8.938,9.1h-7.945v9.453Zm2.262-25.344v13.785h7.945c3.695,0,6.514-2.78,6.6-6.991,0-4.291-2.145-6.794-6.634-6.794Z" transform="translate(-1.634 -346.56)" /><path d="M146.289,347.039V372.38h13.268v2.067H144.026V347.039Z" transform="translate(-1.943 -346.56)" /><path d="M174.064,346.554c8.658,0,13.225,6.237,13.225,14.182s-4.567,14.18-13.225,14.18c-8.7,0-13.228-6.234-13.228-14.18S165.364,346.554,174.064,346.554Zm0,26.3c7.19,0,10.843-5.283,10.843-12.116s-3.653-12.115-10.843-12.115c-7.23,0-10.846,5.282-10.846,12.115S166.834,372.852,174.064,372.852Z" transform="translate(-2.156 -346.554)" /><path d="M207.117,362.211,213,374.287v.159h-2.461l-5.68-11.917c-.556.04-1.113.04-1.708.04H195.6v11.878h-2.263V347.039h10.487c5.283,0,9.254,2.025,9.254,7.785C213.077,359.233,210.375,361.656,207.117,362.211ZM195.6,360.544h8.264c4.17,0,6.832-1.51,6.832-5.72,0-4.052-2.7-5.722-6.832-5.722H195.6Z" transform="translate(-2.567 -346.56)" /><path d="M234.721,366.063H221.213l-3.415,8.381h-2.422l11.36-27.528h2.542L240.6,374.445h-2.425Zm-6.793-16.683-6,14.658h12.116l-6-14.658Z" transform="translate(-2.846 -346.559)" /><path d="M249.106,374.446V349.1H238.579v-2.064h23.277V349.1H251.371v25.344Z" transform="translate(-3.14 -346.56)" /><path d="M268.8,347.039v27.407h-2.262V347.039Z" transform="translate(-3.494 -346.56)" /><path d="M287.805,346.554c8.659,0,13.225,6.237,13.225,14.182s-4.566,14.18-13.225,14.18c-8.7,0-13.228-6.234-13.228-14.18S279.1,346.554,287.805,346.554Zm0,26.3c7.19,0,10.843-5.283,10.843-12.116S295,348.621,287.805,348.621c-7.229,0-10.846,5.282-10.846,12.115S280.576,372.852,287.805,372.852Z" transform="translate(-3.596 -346.554)" /><path d="M307.076,374.446V347.039h2.382L327.1,370.833V347.039h2.265v27.407H326.9l-17.558-23.714v23.714Z" transform="translate(-4.008 -346.56)" /><path d="M363.3,366.063H349.8l-3.415,8.381h-2.422l11.36-27.528h2.541l11.322,27.528h-2.425Zm-6.794-16.683-6,14.658h12.115l-6-14.658Z" transform="translate(-4.475 -346.559)" /><path d="M384.136,346.554c6,0,10.8,2.542,11.4,8.86l-2.145.4c-.6-4.847-4.252-7.19-9.254-7.19-7.07,0-10.488,5.2-10.488,12.076,0,6.832,3.814,12.154,10.407,12.154,3.893,0,9.653-2.623,9.653-7.467V362.6H384.97v-2.065h10.963v13.9h-2.106v-4.29a12.084,12.084,0,0,1-9.97,4.766c-8.1,0-12.552-6.234-12.552-14.219C371.3,352.989,375.238,346.554,384.136,346.554Z" transform="translate(-4.821 -346.554)" /><path d="M418.565,360.98H404.741v11.4h16.487v2.067H402.478V347.039h18.749V349.1H404.741v9.813h13.824Z" transform="translate(-5.216 -346.56)" /><path d="M427.092,374.446V347.039h2.382l17.636,23.794V347.039h2.266v27.407h-2.464l-17.558-23.714v23.714Z" transform="translate(-5.528 -346.56)" /><path d="M455.444,360.617c0-9.772,5.8-14.063,12.395-14.063,6,0,10.8,2.663,11.4,8.86l-2.146.4c-.674-5.123-4.25-7.19-9.254-7.19-5.244,0-10.01,3.655-10.01,12,0,8.382,5.043,12.2,10.326,12.2,5.007,0,8.978-2.542,9.535-7.548l2.145.4c-.6,6.315-5.68,9.254-11.8,9.254C461.443,374.916,455.444,370.469,455.444,360.617Z" transform="translate(-5.887 -346.554)" /><path d="M492.908,361.377h.038l8.662-14.338h2.7l-10.247,16.6v10.8h-2.266v-10.8l-10.247-16.6h2.7Z" transform="translate(-6.218 -346.56)" /></g><g transform="translate(0 83.983)"><g transform="translate(471.939)"><path d="M621.214,85.13a143.238,143.238,0,0,0-121.021,60.034,56.576,56.576,0,0,1,9.969,8.137A130.407,130.407,0,0,1,620.817,97.955c71.889,2.224,128.569,62.521,126.344,134.412S684.638,360.935,612.749,358.711c-59.831-1.851-109.091-43.94-122.663-99.446a83.281,83.281,0,0,1-12.094,4.509c15.411,60.238,69.172,105.743,134.359,107.761,78.96,2.444,145.19-59.808,147.632-138.771S700.174,87.574,621.214,85.13Z" transform="translate(-477.993 -85.061)" /><path d="M637.19,369.371a35.091,35.091,0,0,1,1.88-50.791,34.783,34.783,0,0,1,25.4-8.731,35.2,35.2,0,0,1,32.928,34.6Z" transform="translate(-479.883 -87.907)" /><path d="M568.787,98.172a3.36,3.36,0,0,1,4.167,2.272,30.358,30.358,0,0,1-29.077,38.921q-.951,0-1.908-.059a30.326,30.326,0,0,1-19.459-8.7,3.357,3.357,0,0,1-.027-4.748Z" transform="translate(-478.544 -85.225)" /><path d="M537.184,309.483q-.584,0-1.174-.035a18.85,18.85,0,1,1,1.174.035Z" transform="translate(-478.504 -87.426)" /><path d="M596.307,250.907q-1.358,0-2.693-.084a44.9,44.9,0,1,1,47.578-42.052c-.1,1.522-.267,3.051-.512,4.55a3.358,3.358,0,0,1-2.939,2.8,38.253,38.253,0,0,0-33.371,31.708,3.357,3.357,0,0,1-2.939,2.792A46.03,46.03,0,0,1,596.307,250.907Zm41.06-38.126h0Z" transform="translate(-478.924 -86.024)" /><path d="M690.49,259.153c-.486,0-.971-.014-1.46-.044h0a23.492,23.492,0,1,1,1.46.044Z" transform="translate(-480.387 -86.671)" /><path d="M727.665,148.762a3.355,3.355,0,0,1-.293,4.738,33.624,33.624,0,0,1-22.514,8.386,37.922,37.922,0,0,1-4.076-.223,40.466,40.466,0,0,1-25.867-13.654c-11.787-13.337-13.766-32.257-4.809-46.009a3.355,3.355,0,0,1,4.643-.981Z" transform="translate(-480.356 -85.256)" /></g><g transform="translate(0 54.57)"><path d="M117.533,143.733a3.161,3.161,0,0,1,3.4-3.4h43.978a3.159,3.159,0,0,1,3.4,3.4l-2.09,87.691,2.09,88.739a3.159,3.159,0,0,1-3.4,3.4H120.937a3.162,3.162,0,0,1-3.4-3.4l1.571-76.7H49.212l1.57,76.7a3.162,3.162,0,0,1-3.4,3.4H3.4a3.162,3.162,0,0,1-3.4-3.4l2.093-88.739L0,143.733a3.161,3.161,0,0,1,3.4-3.4H47.378a3.161,3.161,0,0,1,3.4,3.4L49.473,208.39h69.368Z" transform="translate(0 -140.331)" /><path d="M231.818,320.163a3.159,3.159,0,0,1-3.4,3.4H185.224a3.159,3.159,0,0,1-3.4-3.4l2.09-87.43-2.09-89a3.159,3.159,0,0,1,3.4-3.4h43.193a3.159,3.159,0,0,1,3.4,3.4l-2.09,89Z" transform="translate(-2.303 -140.331)" /><path d="M447.406,140.331H374.373a3.162,3.162,0,0,0-3.405,3.4l.062,2.625c17.395,11.184,26.6,29.409,26.6,53.918,0,23.414-8.918,41.654-25.065,53.491l-1.6,66.4a3.163,3.163,0,0,0,3.405,3.4h43.713a3.163,3.163,0,0,0,3.405-3.4l-1.31-56.8h26.7c46.859,0,73.558-23.821,73.558-62.56C520.44,160.747,494.525,140.331,447.406,140.331Zm-1.049,88.476h-26.7l1.051-54.185h24.6c17.8,0,28.01,8.639,28.01,27.222C473.321,221.215,461.8,228.807,446.357,228.807Z" transform="translate(-4.699 -140.331)" /><path d="M244.613,140.331h73.033c47.118,0,73.032,20.416,73.032,60.468,0,38.739-26.7,62.56-73.557,62.56h-26.7l1.309,56.8a3.163,3.163,0,0,1-3.405,3.4H244.613a3.163,3.163,0,0,1-3.405-3.4L243.3,233l-2.1-89.262A3.162,3.162,0,0,1,244.613,140.331ZM289.9,228.807h26.7c15.448,0,26.965-7.592,26.965-26.963,0-18.583-10.212-27.222-28.011-27.222h-24.6Z" transform="translate(-3.055 -140.331)" /></g></g><g transform="translate(0.13)"><path d="M50.613,117.708c-32.158,0-48.986-15.022-50.481-39.837A1.9,1.9,0,0,1,2,76.239H8.545A2.1,2.1,0,0,1,10.6,77.871C12.284,98.115,23.316,110.2,51.172,110.2c21.127,0,37.768-7.511,37.768-25.956C88.94,48,2.75,73.3,2.75,31.509,2.75,10.941,21.821.164,47.433.164c29.541,0,46.743,11.59,48.611,34.119.186.819-.748,1.633-1.682,1.633H87.631a1.77,1.77,0,0,1-1.868-1.633c-1.5-17.96-13.65-26.608-38.143-26.608-20.565,0-35.149,7.345-35.149,23.181,0,33.3,86.192,8.325,86.192,52.732C98.663,106.441,77.349,117.708,50.613,117.708Z" transform="translate(-0.132 -0.002)" /><path d="M157.544,69.4H126.881l.375,45.059a1.9,1.9,0,0,1-1.87,1.632h-6.73a1.9,1.9,0,0,1-1.87-1.632l.561-57.958L116.786,3.45a1.894,1.894,0,0,1,1.87-1.632H156.8c26.923,0,44.5,11.262,44.5,33.306C201.294,58.8,183.158,69.4,157.544,69.4ZM126.695,56.834v5.221h31.036c20.754,0,33.468-7.183,33.468-26.77,0-17.8-12.527-26.124-34.215-26.124H127.256Z" transform="translate(-1.61 -0.023)" /><path d="M289.924,116.1a2.671,2.671,0,0,1-2.432-1.47l-14.771-36.4H216.072l-14.771,36.4a2.673,2.673,0,0,1-2.432,1.47h-6.543a1.25,1.25,0,0,1-1.309-1.47L237.758,3.288a2.673,2.673,0,0,1,2.432-1.47h8.975a2.67,2.67,0,0,1,2.43,1.47l46.742,111.338a1.249,1.249,0,0,1-1.309,1.47Zm-20.38-45.549L244.49,8.672l-25.24,61.875Z" transform="translate(-2.549 -0.023)" /><path d="M359.756,117.868c-37.2,0-58.52-21.059-58.52-59.425C301.236,22.529,323.3,0,359.756,0c24.868,0,46.554,10.448,51.976,39.179a1.443,1.443,0,0,1-1.5,1.633h-6.543a2.158,2.158,0,0,1-2.243-1.633c-4.3-22.691-21.315-31.673-41.881-31.673-30.288,0-47.676,20.082-47.676,50.937,0,35.1,18.135,51.913,47.676,51.913,23.745,0,40.758-11.752,42.815-34.119a2.1,2.1,0,0,1,2.058-1.633h6.729c.937,0,1.871.819,1.684,1.633C409.489,103.5,388.924,117.868,359.756,117.868Z" transform="translate(-3.946)" /><path d="M432.259,116.1a1.9,1.9,0,0,1-1.87-1.632l.562-58.772L430.389,3.45a1.894,1.894,0,0,1,1.87-1.632H504.8A1.894,1.894,0,0,1,506.67,3.45V7.53A1.894,1.894,0,0,1,504.8,9.162H440.86L440.3,50.956H501.06a1.9,1.9,0,0,1,1.871,1.632v4.085a1.9,1.9,0,0,1-1.871,1.633H440.3l.562,50.442H506.3a1.9,1.9,0,0,1,1.868,1.632v4.085A1.9,1.9,0,0,1,506.3,116.1Z" transform="translate(-5.582 -0.023)" /></g><g transform="translate(707.803 337.001)"><path d="M717.339,371.424a.456.456,0,0,1-.308-.793l21.257-19.42a.456.456,0,0,1,.615.674L717.647,371.3A.455.455,0,0,1,717.339,371.424Z" transform="translate(-716.883 -341.448)" /><path d="M722.36,356.785a.456.456,0,0,1-.249-.838l15.309-10.017a.456.456,0,0,1,.5.763l-15.31,10.018A.446.446,0,0,1,722.36,356.785Z" transform="translate(-716.947 -341.381)" /><path d="M733.593,372.442a.447.447,0,0,1-.253-.077.454.454,0,0,1-.127-.632l12.037-18.111a.456.456,0,0,1,.759.505l-12.037,18.111A.454.454,0,0,1,733.593,372.442Z" transform="translate(-717.089 -341.477)" /><path d="M743.9,354.311a6.494,6.494,0,1,1,6.494-6.493A6.5,6.5,0,0,1,743.9,354.311Zm0-12.076a5.582,5.582,0,1,0,5.581,5.583A5.589,5.589,0,0,0,743.9,342.235Z" transform="translate(-717.143 -341.324)" /><path d="M744.1,344.661c1.56,0,2.783.77,2.764,2.35l-1.6.2a1.1,1.1,0,0,0-1.2-1.2c-.987,0-1.362.75-1.362,1.856,0,1.086.434,1.856,1.4,1.856.79,0,1.165-.415,1.244-1.264l1.539.178a2.483,2.483,0,0,1-2.783,2.429c-2.073,0-3.08-1.165-3.08-3.2C741.017,345.866,742.024,344.661,744.1,344.661Z" transform="translate(-717.189 -341.366)" /></g></g></g></svg>
