<svg xmlns="http://www.w3.org/2000/svg" viewBox="0 0 112 163"><path d="M53.7 0H53a49.5 49.5 0 0 0-20.7 4.9 8.5 8.5 0 0 1 1.7-.3.9.9 0 0 1 .3 0 4.4 4.4 0 0 1 1.8 1c.8.5 1 1.6 2 2.1a4.7 4.7 0 0 0 2.2.5c1.7.1 3.4-.5 5-.6a25.8 25.8 0 0 1 5.1.1 29.4 29.4 0 0 1 7.3 2 39.4 39.4 0 0 1 7.7 4.5 61.8 61.8 0 0 1 6.5 5.8c3 3 5.4 6.5 8.7 9.1a17.4 17.4 0 0 0 4.4 2.7 43.1 43.1 0 0 0 7.7 1.7l2.2.6a19.8 19.8 0 0 1 3 .8h.1a9.8 9.8 0 0 1 2.2 1 59 59 0 0 0-7.9-15.7c-8-12-24-20-38.6-20.2ZM24.2 9.7a49.2 49.2 0 0 0-11.4 11.9 45 45 0 0 0-8.5 24.7v40.8c0 1 .5 1.4 1.2 1.4h12.3a7 7 0 0 1-3.4-3.2c-4.7-9.5 10.4-26.4 34-39.3 1-.7 2-1.5 2-1.8-.1-.4-1.6.2-1.6.2a112 112 0 0 0-30.3 19.1l-2.6-12.2a71.2 71.2 0 0 1-1.3-7.4c-.2-2.3 0-7 0-7a36.3 36.3 0 0 1 .8-7 44.4 44.4 0 0 1 3.5-6.9 49 49 0 0 1 4-5 3.3 3.3 0 0 0 1-2c0-.5-.4-.8-.5-1.3a9 9 0 0 1-.4-2.3 3.5 3.5 0 0 1 .4-1.5 6.6 6.6 0 0 1 .8-1Zm77.6 36.5c-3.7 9.1-16 21.5-34 31.1a117.7 117.7 0 0 1-27.8 11h60.7c.7 0 1.1-.3 1.1-1.3V46.2Z"/><path d="M87.7 45.3c-6.6 0-19.9 4.7-33.8 12.6-20.6 11.6-29.8 23.2-26.2 25.3 4.7 2.9 20 1.6 41.2-10.7 8.7-5 25.2-17.2 23-25.3-.3-1.2-1.8-1.8-4.2-1.9ZM56.2 59.6s4.6 8.9-2.6 14.3c-9.8 7.4-17-.5-17-.5a65.7 65.7 0 0 1 19.6-13.8Z"/><path d="M22.2 156.5a4 4 0 0 0 2.5-.7 2.3 2.3 0 0 0 .8-2v-.1a2.5 2.5 0 0 0-.8-2 4.2 4.2 0 0 0-2.6-.6h-6.5v5.4Zm-2.2-11a4 4 0 0 0 2.5-.5 2.3 2.3 0 0 0 .8-2v-.1a2 2 0 0 0-.8-1.8 3.9 3.9 0 0 0-2.4-.7h-4.5v5.1ZM8.9 133.9h12.7a11.3 11.3 0 0 1 4 .7 7.5 7.5 0 0 1 2.8 1.5 6.2 6.2 0 0 1 1.5 2 10 10 0 0 1 .4 3v.3a7 7 0 0 1-1.4 4c-.7 1-1.8 1-2.9 1.6a10.3 10.3 0 0 1 5.4 3.2 6.7 6.7 0 0 1 1.4 4.6v.1a7.7 7.7 0 0 1-2.5 6c-1.7 1.4-5.5 2-8.5 2h-13Zm26.6-.1h21.8v6.2H42.5v5.4h12.6v5.7H42.5v5.8h15v6.2h-22Zm25.1 0h7.5v23h13.2v6.2H60.7v-29.2Zm23.6 0h7.6v23h13.1v6.2H84.4v-29.2Zm-75.5-28H0v-6.1h25.1v6h-9v23.2H8.7Zm29.7 13-3.6-10-3.8 10Zm-6.3-19.2h6l12 29.4h-7.9l-1.7-4.3H29l-1.8 4.3H20Zm58.8-.4a17.3 17.3 0 0 0-6 1.3 14 14 0 0 0-4.6 3.2 13.4 13.4 0 0 0-2.8 4.7 15.5 15.5 0 0 0-1 6 14.2 14.2 0 0 0 4.1 10.7 14.4 14.4 0 0 0 4.8 3.2 14.7 14.7 0 0 0 5.9 1.2 14.5 14.5 0 0 0 6-1.2 14.9 14.9 0 0 0 4.6-3.3 15.2 15.2 0 0 0 3.2-4.8 15.5 15.5 0 0 0 1-5.9 15.2 15.2 0 0 0-1-6 14.6 14.6 0 0 0-7.8-8 14.7 14.7 0 0 0-6-1.1Zm.4 6.4a6.7 6.7 0 0 1 3 .7 7.8 7.8 0 0 1 2.5 2 8.7 8.7 0 0 1 1.5 2.7 10.2 10.2 0 0 1 .6 3.3v.1a10 10 0 0 1-.6 3.4 8.8 8.8 0 0 1-1.5 2.7 7 7 0 0 1-2.4 2 6.9 6.9 0 0 1-3 .6 6.7 6.7 0 0 1-3.2-.7 7.4 7.4 0 0 1-2.3-2 8.6 8.6 0 0 1-1.6-2.7 10.3 10.3 0 0 1-.5-3.4 10 10 0 0 1 .5-3.4 8.8 8.8 0 0 1 1.5-2.8 7.5 7.5 0 0 1 2.4-1.8 6.7 6.7 0 0 1 3-.7Zm-42.4 8.8c0-3.8 1-7.9 3.5-10.6a16 16 0 0 1 11.3-4.6 14.2 14.2 0 0 1 11.7 5.5l-5.7 4.1a13.3 13.3 0 0 0-2.5-2.3 6 6 0 0 0-3.3-.8 9 9 0 0 0-5.8 2.7 8.4 8.4 0 0 0-1.9 5.7 10.7 10.7 0 0 0 3.2 7.4 7 7 0 0 0 4.3 1.3 8.2 8.2 0 0 0 4.2-1 12.4 12.4 0 0 0 2.3-2l5.9 4.3a16.8 16.8 0 0 1-12.2 5.3c-3.4 0-7-.8-9.5-2.8-3.5-3-5.5-5.4-5.5-12.2Zm58.5 42.7h-1v-.4h2.4v.4h-1v2.8h-.4v-2.8Zm1.5-.4h.4l1.2 1.8 1.1-1.8h.4v3.2h-.4v-2.6l-1.1 1.7-1.2-1.7v2.6h-.4Z"/></svg>
