<svg xmlns="http://www.w3.org/2000/svg" viewBox="0 0 145.262 145.262">
  <path d="M93.1,70.7s-.8.054-1.195.116c-1.52.245-1.972.656-1.972,2.528V88.106c0,2.013,1.254,2.133,3.022,2.232,4.316.245,6.823-3.589,6.823-9.79S97.286,70.7,93.1,70.7c0,0-.8.054-1.195.116-1.52.245-1.972.656-1.972,2.528V88.107c0,2.013,1.254,2.133,3.022,2.232,4.316.245,6.823-3.589,6.823-9.79S97.286,70.7,93.1,70.7m-45.309.216c-3.871,0-6.262,3.694-6.262,9.816,0,5.985,2.352,9.608,6.333,9.608,3.872,0,6.3-3.764,6.3-9.674,0-5.985-2.465-9.75-6.371-9.75m23.106,0c-3.872,0-6.268,3.694-6.268,9.816,0,5.985,2.358,9.608,6.338,9.608,3.869,0,6.3-3.764,6.3-9.674,0-5.985-2.462-9.75-6.366-9.75M93.1,70.7s-.8.054-1.195.116c-1.52.245-1.972.656-1.972,2.528V88.107c0,2.013,1.254,2.133,3.022,2.232,4.316.245,6.823-3.589,6.823-9.79S97.286,70.7,93.1,70.7c0,0-.8.054-1.195.116-1.52.245-1.972.656-1.972,2.528V88.107c0,2.013,1.254,2.133,3.022,2.232,4.316.245,6.823-3.589,6.823-9.79S97.286,70.7,93.1,70.7m-22.2.216c-3.872,0-6.268,3.694-6.268,9.816,0,5.985,2.358,9.608,6.338,9.608,3.869,0,6.3-3.764,6.3-9.674,0-5.985-2.462-9.75-6.366-9.75m-23.106,0c-3.871,0-6.262,3.694-6.262,9.816,0,5.985,2.352,9.608,6.333,9.608,3.872,0,6.3-3.764,6.3-9.674,0-5.985-2.465-9.75-6.371-9.75m3.163,34.693c-.059-.108-.926-1.9-1.029-2.126a.221.221,0,0,0-.423.009c-.1.245-.955,1.964-1.012,2.087-.1.2.012.337.208.337H50.74a.213.213,0,0,0,.212-.307M47.789,70.917c-3.871,0-6.262,3.694-6.262,9.816,0,5.985,2.352,9.608,6.333,9.608,3.872,0,6.3-3.764,6.3-9.674,0-5.985-2.465-9.75-6.371-9.75m23.106,0c-3.872,0-6.268,3.694-6.268,9.816,0,5.985,2.358,9.608,6.338,9.608,3.869,0,6.3-3.764,6.3-9.674,0-5.985-2.462-9.75-6.366-9.75M93.1,70.7s-.8.054-1.195.116c-1.52.245-1.972.656-1.972,2.528V88.108c0,2.013,1.254,2.133,3.022,2.232,4.316.245,6.823-3.589,6.823-9.79S97.286,70.7,93.1,70.7c0,0-.8.054-1.195.116-1.52.245-1.972.656-1.972,2.528V88.108c0,2.013,1.254,2.133,3.022,2.232,4.316.245,6.823-3.589,6.823-9.79S97.286,70.7,93.1,70.7m-22.2.216c-3.872,0-6.268,3.694-6.268,9.816,0,5.985,2.358,9.608,6.338,9.608,3.869,0,6.3-3.764,6.3-9.674,0-5.985-2.462-9.75-6.366-9.75m-23.106,0c-3.871,0-6.262,3.694-6.262,9.816,0,5.985,2.352,9.608,6.333,9.608,3.872,0,6.3-3.764,6.3-9.674,0-5.985-2.465-9.75-6.371-9.75m3.163,34.693c-.059-.108-.926-1.9-1.029-2.126a.221.221,0,0,0-.423.009c-.1.245-.955,1.964-1.012,2.087-.1.2.012.337.208.337H50.74a.213.213,0,0,0,.212-.307c-.059-.108-.926-1.9-1.029-2.126a.221.221,0,0,0-.423.009c-.1.245-.955,1.964-1.012,2.087-.1.2.012.337.208.337H50.74a.213.213,0,0,0,.212-.307M47.789,70.917c-3.871,0-6.262,3.694-6.262,9.816,0,5.985,2.352,9.608,6.333,9.608,3.872,0,6.3-3.764,6.3-9.674,0-5.985-2.465-9.75-6.371-9.75m16.482,31.037H61.664c-.27,0-.552.095-.552.431v1.9a.513.513,0,0,0,.552.473h2.607a1.413,1.413,0,1,0,0-2.8m6.624-31.037c-3.872,0-6.268,3.694-6.268,9.816,0,5.985,2.358,9.608,6.338,9.608,3.869,0,6.3-3.764,6.3-9.674,0-5.985-2.462-9.75-6.366-9.75M93.1,70.7s-.8.054-1.195.116c-1.52.245-1.972.656-1.972,2.528V88.108c0,2.013,1.254,2.133,3.022,2.232,4.316.245,6.823-3.589,6.823-9.79S97.286,70.7,93.1,70.7c0,0-.8.054-1.195.116-1.52.245-1.972.656-1.972,2.528V88.108c0,2.013,1.254,2.133,3.022,2.232,4.316.245,6.823-3.589,6.823-9.79S97.286,70.7,93.1,70.7m-22.2.216c-3.872,0-6.268,3.694-6.268,9.816,0,5.985,2.358,9.608,6.338,9.608,3.869,0,6.3-3.764,6.3-9.674,0-5.985-2.462-9.75-6.366-9.75m-23.106,0c-3.871,0-6.262,3.694-6.262,9.816,0,5.985,2.352,9.608,6.333,9.608,3.872,0,6.3-3.764,6.3-9.674,0-5.985-2.465-9.75-6.371-9.75m16.482,31.037H61.665c-.27,0-.552.095-.552.431v1.9a.513.513,0,0,0,.552.473h2.607a1.413,1.413,0,1,0,0-2.8m-13.319,3.656c-.059-.108-.926-1.9-1.029-2.126a.221.221,0,0,0-.423.009c-.1.245-.955,1.964-1.012,2.087-.1.2.012.337.208.337H50.74a.213.213,0,0,0,.212-.307c-.059-.108-.926-1.9-1.029-2.126a.221.221,0,0,0-.423.009c-.1.245-.955,1.964-1.012,2.087-.1.2.012.337.208.337H50.74a.213.213,0,0,0,.212-.307M47.789,70.918c-3.871,0-6.262,3.694-6.262,9.816,0,5.985,2.352,9.608,6.333,9.608,3.872,0,6.3-3.764,6.3-9.674,0-5.985-2.465-9.75-6.371-9.75m16.482,31.037H61.664c-.27,0-.552.095-.552.431v1.9a.513.513,0,0,0,.552.473h2.607a1.413,1.413,0,1,0,0-2.8M70.9,70.918c-3.872,0-6.268,3.694-6.268,9.816,0,5.985,2.358,9.608,6.338,9.608,3.869,0,6.3-3.764,6.3-9.674,0-5.985-2.462-9.75-6.366-9.75M93.1,70.7s-.8.054-1.195.116c-1.52.245-1.972.656-1.972,2.528V88.108c0,2.013,1.254,2.133,3.022,2.232,4.316.245,6.823-3.589,6.823-9.79S97.287,70.7,93.1,70.7c0,0-.8.054-1.195.116-1.52.245-1.972.656-1.972,2.528V88.108c0,2.013,1.254,2.133,3.022,2.232,4.316.245,6.823-3.589,6.823-9.79S97.287,70.7,93.1,70.7m-22.2.216c-3.872,0-6.268,3.694-6.268,9.816,0,5.985,2.358,9.608,6.338,9.608,3.869,0,6.3-3.764,6.3-9.674,0-5.985-2.462-9.75-6.366-9.75m-23.106,0c-3.871,0-6.262,3.694-6.262,9.816,0,5.985,2.352,9.608,6.333,9.608,3.872,0,6.3-3.764,6.3-9.674,0-5.985-2.465-9.75-6.371-9.75m16.482,31.037H61.665c-.27,0-.552.095-.552.431v1.9a.513.513,0,0,0,.552.473h2.607a1.413,1.413,0,1,0,0-2.8m-13.319,3.656c-.059-.108-.926-1.9-1.029-2.126a.221.221,0,0,0-.423.009c-.1.245-.955,1.964-1.012,2.087-.1.2.012.337.208.337h2.045a.213.213,0,0,0,.212-.307M122.7,92.159c0-.245-.245-.3-.486-.3h-.331v.6h.248c.3,0,.569-.017.569-.3m0,1.5-.614-.867h-.208v.867h-.366V91.52h.8c.5,0,.731.2.731.639a.558.558,0,0,1-.547.626l.621.876Zm-.494-2.49a1.472,1.472,0,1,0,1.44,1.473,1.414,1.414,0,0,0-1.44-1.473M49.918,103.485a.221.221,0,0,0-.423.009c-.1.245-.955,1.964-1.012,2.087-.1.2.012.337.208.337h2.045a.213.213,0,0,0,.212-.307c-.059-.108-.926-1.9-1.029-2.126M47.784,70.918c-3.871,0-6.262,3.694-6.262,9.816,0,5.985,2.352,9.608,6.333,9.608,3.872,0,6.3-3.764,6.3-9.674,0-5.985-2.465-9.75-6.371-9.75m16.482,31.037H61.659c-.27,0-.552.095-.552.431v1.9a.513.513,0,0,0,.552.473h2.607a1.413,1.413,0,1,0,0-2.8M70.89,70.918c-3.872,0-6.268,3.694-6.268,9.816,0,5.985,2.358,9.608,6.338,9.608,3.869,0,6.3-3.764,6.3-9.674,0-5.985-2.462-9.75-6.366-9.75m28.882,9.633c0-6.2-2.49-9.848-6.678-9.848,0,0-.8.054-1.195.116-1.52.245-1.972.656-1.972,2.528V88.109c0,2.013,1.254,2.133,3.022,2.232,4.316.245,6.823-3.589,6.823-9.79m24.3-17.083c-.14.647-.543.884-1.254.884l-.9,0H108.1c-1.186,0-1.589-.236-1.589-1.021a.923.923,0,0,1,.876-.947h.714a.655.655,0,0,0,.565-.452,3.484,3.484,0,0,0,.137-1.411V44.772a3.421,3.421,0,0,0-.137-1.382.672.672,0,0,0-.565-.523h-.714a.979.979,0,0,1-.9-.984c0-.781.432-1.034,1.618-1.034h14.065c.71,0,1.108.238,1.254.884l.5,2.45c.191.9-.128,1.39-.771,1.39a.911.911,0,0,1-.906-.548,5.118,5.118,0,0,1-.348-.759c-.344-.906-1.055-1.017-2.694-1.017h-3.319c-1.922,0-2.138.253-2.138,2.125v4.184c0,.788.112,1.132.324,1.274.162.112.423.137,1.432.137h1.639c1.478,0,1.689-.108,1.8-.813l.025-.216c.108-.6.423-.879.955-.879.738,0,.984.419.984,1.655v2.96c0,1.232-.246,1.655-.984,1.655-.531,0-.847-.319-.955-.917l-.037-.233c-.1-.705-.315-.81-1.8-.81H115.5c-1.009,0-1.27.025-1.432.137-.212.142-.324.482-.324,1.275v4.465c0,1.864.112,2.258.668,2.474a5.632,5.632,0,0,0,2.1.245l3.5-.009a2.563,2.563,0,0,0,2.582-1.306c.2-.415.262-.573.3-.644a1.094,1.094,0,0,1,.954-.663c.639,0,.955.486.768,1.39l-.543,2.735ZM122.2,94.48a1.837,1.837,0,1,1,1.831-1.835A1.829,1.829,0,0,1,122.2,94.48M114,92.891a13.224,13.224,0,0,1-3.7-.5,2.838,2.838,0,0,0-.763-.174.949.949,0,0,0-.751.349,1.166,1.166,0,0,1-.818.324c-.589,0-.879-.324-1.087-1.167l-.889-3.523a2.782,2.782,0,0,1-.091-.705,1.095,1.095,0,0,1,2-.626l.506.7a6.5,6.5,0,0,0,5.205,2.789c2.286,0,3.847-1.279,3.847-3.142a3.909,3.909,0,0,0-1.146-2.644,20.771,20.771,0,0,0-3.736-3.025c-3.336-2.337-3.648-2.549-4.743-3.81a5.535,5.535,0,0,1-1.341-3.7c0-3.415,2.6-5.673,6.479-5.673a14.407,14.407,0,0,1,3.039.315c.107.037.393.1.891.216a2.785,2.785,0,0,0,.482.07,1.558,1.558,0,0,0,.809-.319,1.01,1.01,0,0,1,.744-.282c.518,0,.851.353.992.984l.842,3.81a1.472,1.472,0,0,1,.062.489.916.916,0,0,1-1.012.842c-.378,0-.611-.14-.935-.593a5.674,5.674,0,0,0-1.677-1.9,5.471,5.471,0,0,0-3.311-1.134,2.377,2.377,0,0,0-2.681,2.37,2.427,2.427,0,0,0,.381,1.443,7.25,7.25,0,0,0,1.618,1.619c.435.311.992.714,1.743,1.237a29.594,29.594,0,0,1,4.827,3.8,6.984,6.984,0,0,1,1.9,4.8c0,4.072-3.039,6.761-7.691,6.761m-8.894,9.08h-2.05c-.282,0-.486.092-.486.432l.012,6.13c0,.432-.307.482-.788.482-.464,0-.776-.047-.776-.465v-6.138c0-.3-.108-.44-.481-.44H98.456c-.336,0-.432-.323-.432-.593,0-.3-.025-.876.42-.876h6.623c.3,0,.5.166.5.714,0,.486-.128.755-.464.755m-17.034,1.9h2.926c.353,0,.445.308.445.756,0,.39-.084.731-.411.731H88.109a.426.426,0,0,0-.444.432v1.24c0,.3.162.44.4.44h5.018c.332,0,.449.22.449.768,0,.395-.091.719-.444.719H86.628c-.374,0-.528-.179-.528-.623v-7.28c0-.331.133-.564.519-.564H93.1c.386,0,.456.257.456.717,0,.428-.058.768-.476.768H88.014a.351.351,0,0,0-.348.378v1.146a.364.364,0,0,0,.4.373m-5.324-12.6a.907.907,0,0,1,.837-.979H84.3a.7.7,0,0,0,.6-.461A4.63,4.63,0,0,0,85,88.445V72.762a4.65,4.65,0,0,0-.108-1.387.708.708,0,0,0-.6-.461h-.719a.907.907,0,0,1-.837-.979c0-.768.53-.876,1.556-1.029a56.731,56.731,0,0,1,8.3-.543c4.391,0,7.117.954,9.275,3.137,2.072,2.08,3.2,5.283,3.2,9.089,0,4.262-1.436,7.786-4.05,9.866-2.03,1.643-4.578,2.391-8.421,2.391a56.66,56.66,0,0,1-8.3-.545c-1.026-.149-1.556-.257-1.556-1.029M70.852,92.878c-5.681,0-9.749-3.208-11.056-8.379a.526.526,0,0,1-.037-.116c-.116-.581-.639-.623-.764,0,0,.02-.017.041-.025.062-1.32,5.246-5.408,8.437-11.223,8.437-6.969,0-11.5-4.822-11.5-12.178,0-7.528,4.5-12.318,11.575-12.318,5.806,0,9.937,3.238,11.2,8.516.133.606.648.56.759-.016,0-.009,0-.017.012-.022,1.291-5.279,5.354-8.479,11.134-8.479,7.039,0,11.612,4.752,11.612,12.144,0,7.529-4.539,12.351-11.683,12.351m9.754,16.141c-.714,0-.909-.112-1.092-.332l-2.71-2.892a1.69,1.69,0,0,0-1.245-.369.577.577,0,0,0-.5.626v2.465c0,.469-.4.5-.842.5-.465,0-.71-.13-.71-.5v-7.525c0-.444.278-.518.827-.518.432,0,.726.1.726.506v2.271c0,.365.167.543.395.543a1.23,1.23,0,0,0,1.046-.353c.274-.233,3.054-2.786,3.054-2.786a.694.694,0,0,1,1.038.029c.278.266.4.565.091.872-.216.211-2.656,2.42-2.656,2.42a.448.448,0,0,0-.02.734s2.929,3.229,3.237,3.562c.461.5.037.751-.635.751m-14.893-2.731c.067.1,1.254,1.822,1.428,2.08.262.39.025.648-.783.648a1.015,1.015,0,0,1-.951-.369L64.093,106.6a.762.762,0,0,0-.661-.373h-1.88a.442.442,0,0,0-.444.415l.012,2.038c0,.4-.78.336-1.036.336-.337,0-.523-.1-.523-.473l.012-7.75a.336.336,0,0,1,.361-.324h4.458a2.812,2.812,0,0,1,3.017,2.885,2.846,2.846,0,0,1-1.552,2.415c-.22.192-.274.324-.142.515m-12.529,2.731c-.258,0-.648-.042-.769-.324l-.547-1.132a.447.447,0,0,0-.395-.27H47.985c-.22,0-.419.166-.543.477l-.485.925c-.108.27-.636.312-.881.312-.216,0-.925-.025-.7-.5l3.707-7.69a.656.656,0,0,1,.648-.395.627.627,0,0,1,.655.365s3.54,7.546,3.64,7.766c.184.393-.581.464-.837.464m-13.418,0c-.216,0-.618-.12-.618-.4l-.6-4.519c-.038-.187-.108-.27-.258-.27-.12,0-.182.058-.265.162l-2.03,2.6a.5.5,0,0,1-.4.228.468.468,0,0,1-.464-.253l-1.868-2.519a.32.32,0,0,0-.27-.133c-.149,0-.224.133-.245.307l-.585,4.37c-.054.361-.5.432-.864.432-.253,0-.684-.12-.684-.444l.859-7.367c.091-.44.186-.693.822-.693a.712.712,0,0,1,.626.361l2.32,3.262c.125.179.266.329.42.324s.311-.162.444-.336l2.448-3.329a.727.727,0,0,1,.648-.324c.294,0,.51.067.635.561l.859,7.553c.042.432-.635.432-.93.432m-14.6-20.5a4.318,4.318,0,0,0,.083,1.369.9.9,0,0,0,.751.465h.8a.945.945,0,0,1,.935.984c0,.776-.432,1.021-1.731,1.021H19.523c-1.2,0-1.627-.245-1.627-1.021a.967.967,0,0,1,.908-.984h.719a.689.689,0,0,0,.594-.465,4.139,4.139,0,0,0,.112-1.369V72.766a3.254,3.254,0,0,0-.142-1.377.677.677,0,0,0-.564-.528h-.714a.974.974,0,0,1-.9-.983c0-.776.431-1.029,1.618-1.029H34.8c.709,0,1.112.236,1.252.883l.5,2.45c.191.9-.13,1.39-.769,1.39a.914.914,0,0,1-.908-.552,5.424,5.424,0,0,1-.349-.756c-.344-.9-1.055-1.021-2.693-1.021H27.3c-1.925,0-2.141.257-2.141,2.125v4.188c0,.788.112,1.129.327,1.274.162.113.419.137,1.432.137h2.913c1.478,0,1.689-.108,1.8-.813l.025-.22c.108-.6.423-.881.95-.881.744,0,.988.423.988,1.657v2.963c0,1.233-.245,1.655-.988,1.655-.527,0-.842-.319-.95-.917l-.037-.233c-.1-.705-.316-.813-1.8-.813h-2.9c-1.014,0-1.27.025-1.432.137-.216.145-.327.486-.327,1.279l.012,5.74Zm-11.6-43.969c-.527-1.448-.693-1.622-1.822-1.867-.751-.138-.984-.383-.984-.951,0-.6.374-.913,1.183-.913h7.276c.8,0,1.158.316,1.158.95,0,.594-.356.835-1.269.914-.776.07-1.092.319-1.092.879a2.341,2.341,0,0,0,.128.785l.278.8s3.889,11.015,4.5,12.787c.1.283.423.27.531-.046.684-1.963,2.543-7.362,2.61-7.582a3.263,3.263,0,0,0,.049-2c-.078-.253-1.269-3.764-1.269-3.764a8.021,8.021,0,0,0-.292-.809c-.208-.515-.493-.7-1.306-.918-.727-.179-1.005-.419-1.005-.942,0-.677.407-1.063,1.228-1.063H30.4c.8,0,1.191.316,1.191.95,0,.56-.356.835-1.141.947-.938.108-1.191.324-1.191.955a4.565,4.565,0,0,0,.361,1.482s3.412,10.8,3.952,12.493c.1.319.407.248.493-.034.531-1.726,3.906-13.061,3.906-13.061a3.187,3.187,0,0,0,.137-.846c0-.528-.378-.81-1.233-.918-.776-.071-1.132-.423-1.132-.984,0-.705.4-.984,1.34-.984H49.289c1.162,0,1.548.236,1.548,1.009a.92.92,0,0,1-.871,1h-.677a.8.8,0,0,0-.673.449,5.328,5.328,0,0,0-.095,1.386v4.545c0,1.627.14,1.763,1.444,1.763H54.75c.7,0,1.063-.112,1.24-.315.162-.216.162-.353.162-1.66V44.661a4.47,4.47,0,0,0-.086-1.386.765.765,0,0,0-.644-.449H54.75a.96.96,0,0,1-.958-1c0-.773.427-1.009,1.63-1.009h6.4c1.2,0,1.627.236,1.627,1.009a.952.952,0,0,1-.909,1h-.717a.707.707,0,0,0-.6.449,3.775,3.775,0,0,0-.124,1.386V60.483a3.907,3.907,0,0,0,.124,1.411.659.659,0,0,0,.6.42h.717a.947.947,0,0,1,.909.983c0,.781-.386,1.022-1.627,1.022h-6.4c-1.2,0-1.585-.241-1.585-1.022a.976.976,0,0,1,.913-.983h.672a.783.783,0,0,0,.644-.42,4.785,4.785,0,0,0,.086-1.411V55.34c0-1.308,0-1.444-.162-1.655-.178-.208-.54-.32-1.24-.32H49.965c-1.3,0-1.444.138-1.444,1.765v5.354a5.521,5.521,0,0,0,.095,1.411.746.746,0,0,0,.673.42h.677a.937.937,0,0,1,.847,1.024c0,.739-.4.98-1.524.98h-6.42c-1.183,0-1.611-.241-1.611-1.022a.977.977,0,0,1,.913-.983h.7a.652.652,0,0,0,.606-.42,3.776,3.776,0,0,0,.108-1.411V44.661c0-1.8-.843-1.917-1.461-1.834s-.987.482-1.37,1.726l-5.615,18.08c-.506,1.723-.984,2.216-2.037,2.216s-1.586-.456-2.009-1.76l-3-8.96c-.1-.287-.4-.3-.481-.02s-3.2,8.98-3.2,8.98a3.619,3.619,0,0,1-.714,1.375,2.124,2.124,0,0,1-1.2.385c-1.021,0-1.522-.423-2.008-1.76L13.575,44.553ZM60.337,33.887c1.178-4.375,5.432-8.791,10.134-7.441,3.989,1.137,3.707,4.433,6.608,5.465,1.041.369.958,1.416.05,1.589-1.532.29-3.6-.822-5.143-2.221a5.23,5.23,0,0,0-6.172-.477c-.626.477-.307.935.266.806a5.355,5.355,0,0,1,5.308,1.581c1.7,1.909,4.872,3.614,7.678,1.784.773-.5,1.274-1.539,2.059-1.315.839.236.851,1.456-.248,2.875-2.595,3.346-5.254,2.947-8.106,5.74s-3.424,5.968-3.424,10c0,6.255,2.46,10.043,6.62,10.043,4.046,0,6.586-3.934,6.586-10.117,0-5.1-1.207-8.393-4.233-9.555-1.465-.543-1.215-1.975.673-2.2a6.6,6.6,0,0,1,4.752,1.581c2.885,2.125,4.325,5.5,4.325,10.028,0,7.873-4.743,12.912-12.209,12.912-7.288,0-12.033-5.038-12.033-12.729,0-4.947,1.859-8.757,5.076-10.907a22.974,22.974,0,0,1,5.848-2.917c.461-.158.457-.976-.361-.818a8.019,8.019,0,0,1-4.25-.262c-3.324-1.311-4.291-3.656-8.2-1.976-1.179.506-1.939-.211-1.6-1.473M90.078,40.85h6.508c1.269,0,1.7.253,1.7,1.034a.958.958,0,0,1-.933.984h-.768a.765.765,0,0,0-.739.461,3.534,3.534,0,0,0-.1,1.37V59.493c0,1.549.067,1.91.482,2.15.361.25.9.315,2.315.315h1.984a2.563,2.563,0,0,0,2.582-1.306c.2-.42.262-.573.3-.644a1.1,1.1,0,0,1,.951-.668c.643,0,.958.491.771,1.4l-.543,2.735c-.142.647-.543.884-1.254.884H90.078c-1.174,0-1.561-.233-1.561-1.017a.913.913,0,0,1,.879-.947h.681a.7.7,0,0,0,.589-.452,3.083,3.083,0,0,0,.137-1.311V44.7a3.264,3.264,0,0,0-.137-1.37.632.632,0,0,0-.589-.461H89.4a.96.96,0,0,1-.958-.984c0-.781.428-1.034,1.64-1.034M68.09-4.538a72.631,72.631,0,1,0,72.631,72.631A72.631,72.631,0,0,0,68.09-4.538m54.6,96.7c0-.245-.245-.3-.486-.3h-.331v.6h.248c.3,0,.569-.017.569-.3m0,1.5-.614-.867h-.208v.867H121.5V91.522h.8c.5,0,.731.2.731.639a.558.558,0,0,1-.547.626l.621.876Zm-.494-2.49a1.472,1.472,0,1,0,1.44,1.473,1.414,1.414,0,0,0-1.44-1.473m-71.253,14.44c-.059-.108-.926-1.9-1.029-2.126a.221.221,0,0,0-.423.009c-.1.245-.955,1.964-1.012,2.087-.1.2.012.337.208.337h2.045a.213.213,0,0,0,.212-.307m13.319-3.656H61.657c-.27,0-.552.095-.552.431v1.9a.513.513,0,0,0,.552.473h2.607a1.413,1.413,0,1,0,0-2.8M47.782,70.919c-3.871,0-6.262,3.694-6.262,9.816,0,5.985,2.352,9.608,6.333,9.608,3.872,0,6.3-3.764,6.3-9.674,0-5.985-2.465-9.75-6.371-9.75m23.106,0c-3.872,0-6.268,3.694-6.268,9.816,0,5.985,2.358,9.608,6.338,9.608,3.869,0,6.3-3.764,6.3-9.674,0-5.985-2.462-9.75-6.366-9.75m22.2-.216s-.8.054-1.195.116c-1.52.245-1.972.656-1.972,2.528V88.11c0,2.013,1.254,2.133,3.022,2.232,4.316.245,6.823-3.589,6.823-9.79S97.279,70.7,93.091,70.7m29.6,21.458c0-.245-.245-.3-.486-.3h-.331v.6h.248c.3,0,.569-.017.569-.3m0,1.5-.614-.867h-.208v.867H121.5V91.522h.8c.5,0,.731.2.731.639a.558.558,0,0,1-.547.626l.621.876Zm-.494-2.49a1.472,1.472,0,1,0,1.44,1.473,1.414,1.414,0,0,0-1.44-1.473M93.086,70.7s-.8.054-1.195.116c-1.52.245-1.972.656-1.972,2.528V88.11c0,2.013,1.254,2.133,3.022,2.232,4.316.245,6.823-3.589,6.823-9.79S97.274,70.7,93.086,70.7m-22.2.216c-3.872,0-6.268,3.694-6.268,9.816,0,5.985,2.358,9.608,6.338,9.608,3.869,0,6.3-3.764,6.3-9.674,0-5.985-2.462-9.75-6.366-9.75m-6.624,31.037H61.652c-.27,0-.552.095-.552.431v1.9a.513.513,0,0,0,.552.473h2.607a1.413,1.413,0,1,0,0-2.8M47.777,70.92c-3.871,0-6.262,3.694-6.262,9.816,0,5.985,2.352,9.608,6.333,9.608,3.872,0,6.3-3.764,6.3-9.674,0-5.985-2.465-9.75-6.371-9.75m3.163,34.693c-.059-.108-.926-1.9-1.029-2.126a.221.221,0,0,0-.423.009c-.1.245-.955,1.964-1.012,2.087-.1.2.012.337.208.337h2.045a.213.213,0,0,0,.212-.307c-.059-.108-.926-1.9-1.029-2.126a.221.221,0,0,0-.423.009c-.1.245-.955,1.964-1.012,2.087-.1.2.012.337.208.337h2.045a.213.213,0,0,0,.212-.307m13.319-3.656H61.652c-.27,0-.552.095-.552.431v1.9a.513.513,0,0,0,.552.473h2.607a1.413,1.413,0,1,0,0-2.8M47.777,70.92c-3.871,0-6.262,3.694-6.262,9.816,0,5.985,2.352,9.608,6.333,9.608,3.872,0,6.3-3.764,6.3-9.674,0-5.985-2.465-9.75-6.371-9.75m23.106,0c-3.872,0-6.268,3.694-6.268,9.816,0,5.985,2.358,9.608,6.338,9.608,3.869,0,6.3-3.764,6.3-9.674,0-5.985-2.462-9.75-6.366-9.75m22.2-.216s-.8.054-1.195.116c-1.52.245-1.972.656-1.972,2.528V88.11c0,2.013,1.254,2.133,3.022,2.232,4.316.245,6.823-3.589,6.823-9.79S97.274,70.7,93.086,70.7c0,0-.8.054-1.195.116-1.52.245-1.972.656-1.972,2.528V88.11c0,2.013,1.254,2.133,3.022,2.232,4.316.245,6.823-3.589,6.823-9.79S97.274,70.7,93.086,70.7m-22.2.216c-3.872,0-6.268,3.694-6.268,9.816,0,5.985,2.358,9.608,6.338,9.608,3.869,0,6.3-3.764,6.3-9.674,0-5.985-2.462-9.75-6.366-9.75m-6.624,31.037H61.651c-.27,0-.552.095-.552.431v1.9a.513.513,0,0,0,.552.473h2.607a1.413,1.413,0,1,0,0-2.8M47.776,70.92c-3.871,0-6.262,3.694-6.262,9.816,0,5.985,2.352,9.608,6.333,9.608,3.872,0,6.3-3.764,6.3-9.674,0-5.985-2.465-9.75-6.371-9.75m3.163,34.693c-.059-.108-.926-1.9-1.029-2.126a.221.221,0,0,0-.423.009c-.1.245-.955,1.964-1.012,2.087-.1.2.012.337.208.337h2.045a.213.213,0,0,0,.212-.307c-.059-.108-.926-1.9-1.029-2.126a.221.221,0,0,0-.423.009c-.1.245-.955,1.964-1.012,2.087-.1.2.012.337.208.337h2.045a.213.213,0,0,0,.212-.307m13.319-3.656H61.652c-.27,0-.552.095-.552.431v1.9a.513.513,0,0,0,.552.473h2.607a1.413,1.413,0,1,0,0-2.8M47.776,70.92c-3.871,0-6.262,3.694-6.262,9.816,0,5.985,2.352,9.608,6.333,9.608,3.872,0,6.3-3.764,6.3-9.674,0-5.985-2.465-9.75-6.371-9.75m23.106,0c-3.872,0-6.268,3.694-6.268,9.816,0,5.985,2.358,9.608,6.338,9.608,3.869,0,6.3-3.764,6.3-9.674,0-5.985-2.462-9.75-6.366-9.75m22.2-.216s-.8.054-1.195.116c-1.52.245-1.972.656-1.972,2.528V88.11c0,2.013,1.254,2.133,3.022,2.232,4.316.245,6.823-3.589,6.823-9.79S97.274,70.7,93.086,70.7c0,0-.8.054-1.195.116-1.52.245-1.972.656-1.972,2.528V88.11c0,2.013,1.254,2.133,3.022,2.232,4.316.245,6.823-3.589,6.823-9.79S97.274,70.7,93.086,70.7m-22.2.216c-3.872,0-6.268,3.694-6.268,9.816,0,5.985,2.358,9.608,6.338,9.608,3.869,0,6.3-3.764,6.3-9.674,0-5.985-2.462-9.75-6.366-9.75m-6.624,31.037H61.651c-.27,0-.552.095-.552.431v1.9a.513.513,0,0,0,.552.473h2.607a1.413,1.413,0,1,0,0-2.8M47.776,70.92c-3.871,0-6.262,3.694-6.262,9.816,0,5.985,2.352,9.608,6.333,9.608,3.872,0,6.3-3.764,6.3-9.674,0-5.985-2.465-9.75-6.371-9.75m3.163,34.693c-.059-.108-.926-1.9-1.029-2.126a.221.221,0,0,0-.423.009c-.1.245-.955,1.964-1.012,2.087-.1.2.012.337.208.337h2.045a.213.213,0,0,0,.212-.307M47.776,70.92c-3.871,0-6.262,3.694-6.262,9.816,0,5.985,2.352,9.608,6.333,9.608,3.872,0,6.3-3.764,6.3-9.674,0-5.985-2.465-9.75-6.371-9.75m23.106,0c-3.872,0-6.268,3.694-6.268,9.816,0,5.985,2.358,9.608,6.338,9.608,3.869,0,6.3-3.764,6.3-9.674,0-5.985-2.462-9.75-6.366-9.75m22.2-.216s-.8.054-1.195.116c-1.52.245-1.972.656-1.972,2.528V88.111c0,2.013,1.254,2.133,3.022,2.232,4.316.245,6.823-3.589,6.823-9.79S97.273,70.7,93.085,70.7c0,0-.8.054-1.195.116-1.52.245-1.972.656-1.972,2.528V88.111c0,2.013,1.254,2.133,3.022,2.232,4.316.245,6.823-3.589,6.823-9.79S97.273,70.7,93.086,70.7m-22.2.216c-3.872,0-6.268,3.694-6.268,9.816,0,5.985,2.358,9.608,6.338,9.608,3.869,0,6.3-3.764,6.3-9.674,0-5.985-2.462-9.75-6.366-9.75m-23.106,0c-3.871,0-6.262,3.694-6.262,9.816,0,5.985,2.352,9.608,6.333,9.608,3.872,0,6.3-3.764,6.3-9.674,0-5.985-2.465-9.75-6.371-9.75-3.871,0-6.262,3.694-6.262,9.816,0,5.985,2.352,9.608,6.333,9.608,3.872,0,6.3-3.764,6.3-9.674,0-5.985-2.465-9.75-6.371-9.75m23.106,0c-3.872,0-6.268,3.694-6.268,9.816,0,5.985,2.358,9.608,6.338,9.608,3.869,0,6.3-3.764,6.3-9.674,0-5.985-2.462-9.75-6.366-9.75m22.2-.216s-.8.054-1.195.116c-1.52.245-1.972.656-1.972,2.528V88.111c0,2.013,1.254,2.133,3.022,2.232,4.316.245,6.823-3.589,6.823-9.79s-2.49-9.848-6.678-9.848c0,0-.8.054-1.195.116-1.52.245-1.972.656-1.972,2.528V88.111c0,2.013,1.254,2.133,3.022,2.232,4.316.245,6.823-3.589,6.823-9.79s-2.49-9.848-6.678-9.848m-22.2.216c-3.872,0-6.268,3.694-6.268,9.816,0,5.985,2.358,9.608,6.338,9.608,3.869,0,6.3-3.764,6.3-9.674,0-5.985-2.462-9.75-6.366-9.75m-23.106,0c-3.871,0-6.262,3.694-6.262,9.816,0,5.985,2.352,9.608,6.333,9.608,3.872,0,6.3-3.764,6.3-9.674,0-5.985-2.465-9.75-6.371-9.75" transform="translate(4.541 4.538)" />
</svg>
